<?xml version="1.0" encoding="UTF-8" standalone="no"?>
<!-- Created with Inkscape (http://www.inkscape.org/) -->

<svg
   width="1060.8942"
   height="661.17236"
   viewBox="0 0 1060.8942 661.17236"
   version="1.1"
   id="svg1"
   xml:space="preserve"
   inkscape:version="1.3.2 (091e20e, 2023-11-25, custom)"
   sodipodi:docname="pc grande.svg"
   inkscape:export-filename="pc grande.png"
   inkscape:export-xdpi="96"
   inkscape:export-ydpi="96"
   xmlns:inkscape="http://www.inkscape.org/namespaces/inkscape"
   xmlns:sodipodi="http://sodipodi.sourceforge.net/DTD/sodipodi-0.dtd"
   xmlns="http://www.w3.org/2000/svg"
   xmlns:svg="http://www.w3.org/2000/svg"><sodipodi:namedview
     id="namedview1"
     pagecolor="#ffffff"
     bordercolor="#ffffff"
     borderopacity="1"
     inkscape:showpageshadow="0"
     inkscape:pageopacity="0"
     inkscape:pagecheckerboard="1"
     inkscape:deskcolor="#505050"
     inkscape:document-units="px"
     showgrid="true"
     inkscape:zoom="0.41910808"
     inkscape:cx="1215.6769"
     inkscape:cy="559.52154"
     inkscape:window-width="1920"
     inkscape:window-height="1046"
     inkscape:window-x="-11"
     inkscape:window-y="-11"
     inkscape:window-maximized="1"
     inkscape:current-layer="layer1"><inkscape:grid
       type="axonomgrid"
       id="grid3"
       units="mm"
       originx="-306.28111"
       originy="-209.41382"
       spacingx="0"
       spacingy="3.7795276"
       empcolor="#006597"
       empopacity="0.30196078"
       color="#001e2d"
       opacity="0.14901961"
       empspacing="5"
       dotted="false"
       gridanglex="30"
       gridanglez="30"
       visible="true" /></sodipodi:namedview><defs
     id="defs1"><inkscape:path-effect
       effect="fillet_chamfer"
       id="path-effect7"
       is_visible="true"
       lpeversion="1"
       nodesatellites_param="F,0,0,1,0,3,0,1 @ F,0,0,1,0,3,0,1 @ F,0,0,1,0,3,0,1 @ F,0,0,1,0,3,0,1 @ F,0,0,1,0,3,0,1 @ F,0,0,1,0,3,0,1 @ F,0,0,1,0,3,0,1 @ F,0,0,1,0,3,0,1"
       radius="3"
       unit="px"
       method="auto"
       mode="F"
       chamfer_steps="1"
       flexible="false"
       use_knot_distance="true"
       apply_no_radius="true"
       apply_with_radius="true"
       only_selected="false"
       hide_knots="false" /><inkscape:path-effect
       effect="fillet_chamfer"
       id="path-effect5"
       is_visible="true"
       lpeversion="1"
       nodesatellites_param="F,0,0,1,0,3,0,1 @ F,0,0,1,0,3,0,1 @ F,0,0,1,0,3,0,1 @ F,0,0,1,0,3,0,1 @ F,0,0,1,0,3,0,1 @ F,0,0,1,0,3,0,1"
       radius="3"
       unit="px"
       method="arc"
       mode="F"
       chamfer_steps="1"
       flexible="false"
       use_knot_distance="true"
       apply_no_radius="true"
       apply_with_radius="true"
       only_selected="false"
       hide_knots="false" /><inkscape:path-effect
       effect="bspline"
       id="path-effect4"
       is_visible="true"
       lpeversion="1.3"
       weight="33.333333"
       steps="2"
       helper_size="0"
       apply_no_weight="true"
       apply_with_weight="true"
       only_selected="false"
       uniform="false" /><inkscape:path-effect
       effect="fillet_chamfer"
       id="path-effect1"
       is_visible="true"
       lpeversion="1"
       nodesatellites_param="F,0,0,1,0,33,0,1 @ F,0,0,1,0,33,0,1 @ F,0,0,1,0,33,0,1 @ F,0,0,1,0,33,0,1"
       radius="33"
       unit="px"
       method="auto"
       mode="F"
       chamfer_steps="1"
       flexible="false"
       use_knot_distance="true"
       apply_no_radius="true"
       apply_with_radius="true"
       only_selected="false"
       hide_knots="false" /><inkscape:path-effect
       effect="fillet_chamfer"
       id="path-effect7-6"
       is_visible="true"
       lpeversion="1"
       nodesatellites_param="F,0,0,1,0,3,0,1 @ F,0,0,1,0,3,0,1 @ F,0,0,1,0,3,0,1 @ F,0,0,1,0,3,0,1 @ F,0,0,1,0,3,0,1 @ F,0,0,1,0,3,0,1 @ F,0,0,1,0,3,0,1 @ F,0,0,1,0,3,0,1"
       radius="3"
       unit="px"
       method="auto"
       mode="F"
       chamfer_steps="1"
       flexible="false"
       use_knot_distance="true"
       apply_no_radius="true"
       apply_with_radius="true"
       only_selected="false"
       hide_knots="false" /><inkscape:path-effect
       effect="fillet_chamfer"
       id="path-effect7-6-4"
       is_visible="true"
       lpeversion="1"
       nodesatellites_param="F,0,0,1,0,3,0,1 @ F,0,0,1,0,3,0,1 @ F,0,0,1,0,3,0,1 @ F,0,0,1,0,3,0,1 @ F,0,0,1,0,3,0,1 @ F,0,0,1,0,3,0,1 @ F,0,0,1,0,3,0,1 @ F,0,0,1,0,3,0,1"
       radius="3"
       unit="px"
       method="auto"
       mode="F"
       chamfer_steps="1"
       flexible="false"
       use_knot_distance="true"
       apply_no_radius="true"
       apply_with_radius="true"
       only_selected="false"
       hide_knots="false" /></defs><g
     inkscape:label="Camada 1"
     inkscape:groupmode="layer"
     id="layer1"
     transform="translate(-306.2811,-209.41382)"><g
       id="g7"
       transform="translate(-85.896697,-184.01058)"><path
         style="opacity:1;fill:#2c2121;fill-opacity:1;stroke:#ffffff;stroke-width:0.127;stroke-linecap:round;stroke-dasharray:none"
         id="rect1"
         width="921.16602"
         height="560.16852"
         x="659.72668"
         y="57.349838"
         inkscape:path-effect="#path-effect1"
         sodipodi:type="rect"
         d="m 692.72668,57.349838 h 855.16602 a 33,33 45 0 1 33,33 V 584.51836 a 33,33 135 0 1 -33,33 l -855.16602,0 a 33,33 45 0 1 -33,-33 V 90.349838 a 33,33 135 0 1 33,-33 z"
         transform="matrix(1.0417074,0,0,1.020103,-245.36463,334.98644)" /><rect
         style="opacity:0.886719;fill:#d5d5d5;fill-opacity:1;stroke:#ffffff;stroke-width:0.145504;stroke-linecap:round;stroke-dasharray:none"
         id="rect2"
         width="876.9967"
         height="493.07718"
         x="483.17175"
         y="432.66534" /><path
         style="opacity:1;fill:#2c2121;fill-opacity:1;stroke:#2c2121;stroke-width:0.129;stroke-linecap:round;stroke-dasharray:none;stroke-opacity:1"
         d="m 478.43864,866.91989 -40.39113,18.97965 a 4.724387,4.724387 122.41567 0 0 -2.71518,4.27585 v 23.35896 a 3,3 45 0 0 3,3 H 1492.7727 a 3,3 135 0 0 3,-3 v -21.40249 a 4.9338627,4.9338627 58.698606 0 0 -2.6635,-4.38047 l -43.7675,-22.6842 a 12.253799,12.253799 13.64053 0 0 -5.6635,-1.37439 l -959.52439,1.94516 a 13.502841,13.502841 167.3576 0 0 -5.71517,1.28193 z"
         id="path3"
         inkscape:path-effect="#path-effect4;#path-effect5"
         inkscape:original-d="m 481.15382,865.64404 -45.82149,21.53135 v 29.35896 H 1495.7727 v -27.40249 l -49.0945,-25.44514 z"
         transform="rotate(-179.89585,944.21215,959.56656)" /><path
         style="opacity:1;fill:#2c2121;fill-opacity:1;stroke:#2c2121;stroke-width:0.12704;stroke-linecap:round;stroke-dasharray:none;stroke-opacity:1"
         d="m 439.43577,976.61452 -44.05557,25.35368 a 0.80160774,0.80160774 75.03992 0 0 0.39984,1.4964 H 1407.7349 a 0.80160795,0.80160795 104.96008 0 0 0.3998,-1.4964 l -60.4741,-34.8025 a 11.227434,11.227434 14.960084 0 0 -5.6002,-1.49638 h -880.60585 -3 l -13.81846,7.95244 z"
         id="path6"
         inkscape:path-effect="#path-effect7"
         inkscape:original-d="m 442.03593,975.11814 -49.25589,28.34646 H 1410.7349 l -65.6745,-37.79528 H 458.45455 v 0 0 0 z"
         transform="matrix(1.0453658,0,0,1.1287821,-20.651827,-128.34791)" /><path
         style="opacity:0.939709;fill:#777777;fill-opacity:1;stroke:#000000;stroke-width:0.12704;stroke-linecap:round;stroke-dasharray:none;stroke-opacity:1"
         d="m 439.43577,976.61452 -44.05557,25.35368 a 0.80160774,0.80160774 75.03992 0 0 0.39984,1.4964 H 1407.7349 a 0.80160795,0.80160795 104.96008 0 0 0.3998,-1.4964 l -60.4741,-34.8025 a 11.227434,11.227434 14.960084 0 0 -5.6002,-1.49638 h -880.60585 -3 l -13.81846,7.95244 z"
         id="path6-3"
         inkscape:path-effect="#path-effect7-6"
         inkscape:original-d="m 442.03593,975.11814 -49.25589,28.34646 H 1410.7349 l -65.6745,-37.79528 H 458.45455 v 0 0 0 z"
         transform="matrix(0.93602272,0,0,0.53085593,75.408938,460.59709)" /><path
         style="opacity:0.939709;fill:#777777;fill-opacity:1;stroke:#000000;stroke-width:0.12704;stroke-linecap:round;stroke-dasharray:none;stroke-opacity:1"
         d="m 439.43577,976.61452 -44.05557,25.35368 a 0.80160774,0.80160774 75.03992 0 0 0.39984,1.4964 H 1407.7349 a 0.80160795,0.80160795 104.96008 0 0 0.3998,-1.4964 l -60.4741,-34.8025 a 11.227434,11.227434 14.960084 0 0 -5.6002,-1.49638 h -880.60585 -3 l -13.81846,7.95244 z"
         id="path6-3-5"
         inkscape:path-effect="#path-effect7-6-4"
         inkscape:original-d="m 442.03593,975.11814 -49.25589,28.34646 H 1410.7349 l -65.6745,-37.79528 H 458.45455 v 0 0 0 z"
         transform="matrix(-0.32272765,0,0,-0.53184211,1204.2357,1547.2844)" /></g></g></svg>
