<?xml version="1.0" encoding="UTF-8" standalone="no"?>
<!-- Created with Inkscape (http://www.inkscape.org/) -->

<svg
   width="43.501236mm"
   height="41.200077mm"
   viewBox="0 0 43.501236 41.200077"
   version="1.1"
   id="svg1"
   xml:space="preserve"
   xmlns="http://www.w3.org/2000/svg"
   xmlns:svg="http://www.w3.org/2000/svg"><defs
     id="defs1" /><g
     id="layer1"
     transform="translate(-89.100756,-112.89982)"><path
       d="m 122.97544,144 -12.12433,7.00009 v 2.99981 l 12.12433,-7.00009 z"
       style="opacity:1;fill:#4a4643;fill-opacity:1;stroke:#000000;stroke-width:0.2;stroke-linecap:butt;stroke-linejoin:round;stroke-opacity:0;paint-order:normal"
       id="path31" /><path
       d="M 110.85111,151.00009 89.200757,138.50007 v 2.99982 l 21.650353,12.50001 z"
       style="opacity:1;fill:#302c29;fill-opacity:1;stroke:#302c29;stroke-width:0.2;stroke-linecap:butt;stroke-linejoin:round;stroke-opacity:1;paint-order:normal"
       id="path29" /><path
       d="m 122.97544,144 -21.65036,-12.50002 -12.124323,7.00009 21.650353,12.50002 z"
       style="opacity:1;fill:#828887;fill-opacity:1;stroke:#828887;stroke-width:0.2;stroke-linecap:butt;stroke-linejoin:round;stroke-opacity:1;paint-order:normal"
       id="path30" /><path
       d="m 110.85111,112.99982 -2.59777,1.50017 L 129.9037,127 l 2.59829,-1.50017 z"
       style="opacity:1;fill:#686868;fill-opacity:1;stroke:#686868;stroke-width:0.2;stroke-linecap:butt;stroke-linejoin:round;stroke-opacity:1;paint-order:normal"
       id="path40" /><path
       d="M 132.50199,125.49983 129.9037,127 v 1.99988 l -2.59778,1.50016 v 2.99982 l -1.73219,0.99994 v 3.00033 l -2.59829,1.49965 V 144 l 2.59829,-1.50017 v -1.99988 l 1.73219,-0.99994 v -2.99981 l 2.59778,-1.50017 v -2.99982 l 2.59829,-1.50017 z"
       style="opacity:1;fill:#484646;fill-opacity:1;stroke:#484646;stroke-width:0.2;stroke-linecap:butt;stroke-linejoin:round;stroke-opacity:1;paint-order:normal"
       id="path32" /><path
       d="m 120.37767,137.50013 2.59777,-1.50016 v -2.99982 l 1.73219,-0.99994 v -3.00033 l 2.59829,-1.49965 -16.45481,-9.5002 -2.59777,1.50017 v 2.99982 l -1.73219,0.99994 v 2.99981 l -2.59829,1.50017 v 2.99982 l 16.45481,9.53998 z"
       style="opacity:1;fill:none;stroke:#000000;stroke-width:0.2;stroke-linecap:butt;stroke-linejoin:round;paint-order:normal"
       id="path46" /><path
       d="m 101.32508,126.49977 2.59778,1.50017 2.59829,-1.50017 -2.59829,-1.49965 z"
       style="opacity:1;fill:#727675;fill-opacity:1;stroke:#727675;stroke-width:0.2;stroke-linecap:butt;stroke-linejoin:round;stroke-opacity:1;paint-order:normal"
       id="path45" /><path
       d="m 103.92286,125.00012 2.59829,1.49965 v -2.99981 l -2.59829,-1.50017 z"
       style="opacity:1;fill:#343635;fill-opacity:1;stroke:#343635;stroke-width:0.2;stroke-linecap:butt;stroke-linejoin:round;stroke-opacity:1;paint-order:normal"
       id="path44" /><path
       d="m 103.92286,121.99979 2.59829,1.50017 1.73219,-0.99994 -2.59829,-1.50017 z"
       style="opacity:1;fill:#707473;fill-opacity:1;stroke:#707473;stroke-width:0.2;stroke-linecap:butt;stroke-linejoin:round;stroke-opacity:1;paint-order:normal"
       id="path43" /><path
       d="m 105.65505,120.99985 2.59829,1.50017 v -2.99982 l -2.59829,-1.50017 z"
       style="opacity:1;fill:#353938;fill-opacity:1;stroke:#353938;stroke-width:0.2;stroke-linecap:butt;stroke-linejoin:round;stroke-opacity:1;paint-order:normal"
       id="path42" /><path
       d="m 105.65505,118.00003 2.59829,1.50017 2.59777,-1.50017 -2.59777,-1.50016 z"
       style="opacity:1;fill:#636363;fill-opacity:1;stroke:#636363;stroke-width:0.2;stroke-linecap:butt;stroke-linejoin:round;stroke-opacity:1;paint-order:normal"
       id="path41" /><path
       d="m 108.25334,116.49987 2.59777,1.50016 16.45481,9.5002 2.59778,1.49965 V 127 l -21.65036,-12.50001 z"
       style="opacity:1;fill:#3b403e;fill-opacity:1;stroke:#000000;stroke-width:0.2;stroke-linecap:butt;stroke-linejoin:round;stroke-opacity:0;paint-order:normal"
       id="path39" /><path
       d="m 129.9037,128.99988 -2.59778,-1.49965 -2.59829,1.49965 2.59829,1.50016 z"
       style="opacity:1;fill:#626262;fill-opacity:1;stroke:#626262;stroke-width:0.2;stroke-linecap:butt;stroke-linejoin:round;stroke-opacity:1;paint-order:normal"
       id="path38" /><path
       d="m 127.30592,130.50004 -2.59829,-1.50016 v 3.00033 l 2.59829,1.49965 z"
       style="opacity:1;fill:#383b3a;fill-opacity:1;stroke:#383b3a;stroke-width:0.2;stroke-linecap:butt;stroke-linejoin:round;stroke-opacity:1;paint-order:normal"
       id="path37" /><path
       d="m 127.30592,133.49986 -2.59829,-1.49965 -1.73219,0.99994 2.59829,1.49965 z"
       style="opacity:1;fill:#6c6f6e;fill-opacity:1;stroke:#6c6f6e;stroke-width:0.2;stroke-linecap:butt;stroke-linejoin:round;stroke-opacity:1;paint-order:normal"
       id="path36" /><path
       d="m 125.57373,134.4998 -2.59829,-1.49965 v 2.99982 l 2.59829,1.50016 z"
       style="opacity:1;fill:#343635;fill-opacity:1;stroke:#343635;stroke-width:0.2;stroke-linecap:butt;stroke-linejoin:round;stroke-opacity:1;paint-order:normal"
       id="path35" /><path
       d="m 125.57373,137.50013 -2.59829,-1.50016 -2.59777,1.50016 2.59777,1.49965 z"
       style="opacity:1;fill:#6d6f6f;fill-opacity:1;stroke:#6d6f6f;stroke-width:0.2;stroke-linecap:butt;stroke-linejoin:round;stroke-opacity:1;paint-order:normal"
       id="path34" /><path
       d="m 122.97544,144 v -5.00022 l -2.59777,-1.49965 v 3.03961 l -16.45481,-9.53998 v -2.99982 l -2.59778,-1.50017 v 5.00021 z"
       style="opacity:1;fill:#272726;fill-opacity:1;stroke:#272726;stroke-width:0.2;stroke-linecap:butt;stroke-linejoin:round;stroke-opacity:1;paint-order:normal"
       id="path33" /><path
       style="opacity:1;fill:#ffffff;fill-opacity:1;stroke:#ffffff;stroke-width:0.2;stroke-linecap:butt;stroke-linejoin:round;stroke-dasharray:none;stroke-dashoffset:0;stroke-opacity:1;paint-order:normal"
       d="m 120.37767,140.53974 -16.45463,-9.50008 v -3.03983 l 2.59794,-1.49992 v -3.00005 l 1.732,-0.99997 v -2.99979 l 2.59817,-1.50005 16.45448,9.5 -2.59789,1.49989 v 3.00033 l -1.7323,1.00015 v 2.99955 l -2.59802,1.49996 z"
       id="path63" /></g></svg>
