<?xml version="1.0" encoding="UTF-8" standalone="no"?>
<!-- Created with Inkscape (http://www.inkscape.org/) -->

<svg
   width="147.09756mm"
   height="65.545113mm"
   viewBox="0 0 147.09757 65.545112"
   version="1.1"
   id="svg1"
   xml:space="preserve"
   xmlns:inkscape="http://www.inkscape.org/namespaces/inkscape"
   xmlns:sodipodi="http://sodipodi.sourceforge.net/DTD/sodipodi-0.dtd"
   xmlns="http://www.w3.org/2000/svg"
   xmlns:svg="http://www.w3.org/2000/svg"><sodipodi:namedview
     id="namedview1"
     pagecolor="#ffffff"
     bordercolor="#000000"
     borderopacity="0.25"
     inkscape:showpageshadow="2"
     inkscape:pageopacity="0.0"
     inkscape:pagecheckerboard="0"
     inkscape:deskcolor="#d1d1d1"
     inkscape:document-units="mm"
     inkscape:zoom="0.35151786"
     inkscape:cx="396.85039"
     inkscape:cy="561.84912"
     inkscape:window-width="1920"
     inkscape:window-height="974"
     inkscape:window-x="-11"
     inkscape:window-y="-11"
     inkscape:window-maximized="1"
     inkscape:current-layer="layer1" /><defs
     id="defs1"><inkscape:path-effect
       effect="fillet_chamfer"
       id="path-effect2"
       is_visible="true"
       lpeversion="1"
       nodesatellites_param="F,0,0,1,0,0,0,1 @ F,0,0,1,0,0,0,1 @ F,0,0,1,0,0,0,1 @ F,0,0,1,0,0,0,1 @ F,0,0,1,0,0,0,1 @ F,0,0,1,0,0,0,1"
       radius="6"
       unit="px"
       method="auto"
       mode="F"
       chamfer_steps="1"
       flexible="false"
       use_knot_distance="true"
       apply_no_radius="true"
       apply_with_radius="true"
       only_selected="false"
       hide_knots="false" /></defs><g
     inkscape:label="Camada 1"
     inkscape:groupmode="layer"
     id="layer1"><path
       style="fill:#5f7642;fill-opacity:1;fill-rule:evenodd;stroke:none;stroke-width:5.41509;stroke-linecap:round;stroke-linejoin:round;stroke-dasharray:none"
       d="M 6.4026564,65.27141 C 4.2400914,64.84147 2.7280834,63.91759 1.3041614,62.15609 L 0.13522844,60.71003 0.02547044,33.74211 c -0.06037,-14.83235 -0.0097,-27.52194 0.112648,-28.19909 C 0.41873944,3.98961 2.2396874,1.89464 4.2393814,0.8246 L 5.7803894,0 H 64.67824 123.57608 l 1.50538,0.8123 c 1.82389,0.98418 3.38743,2.58073 3.92767,4.01058 0.22015,0.5827 0.40028,3.41939 0.40028,6.30377 v 5.24431 h 7.16923 c 8.03903,0 8.86283,0.19901 9.90368,2.39245 0.53369,1.12466 0.61526,3.07457 0.61526,14.70609 0,14.76129 -0.0939,15.46514 -2.20972,16.55926 -0.91729,0.47435 -2.53485,0.58952 -8.28006,0.58952 h -7.14007 l -0.12324,5.04709 c -0.12159,4.97935 -0.13866,5.06648 -1.2715,6.49194 -0.63154,0.79466 -1.98638,1.86822 -3.01076,2.3857 l -1.86249,0.94086 -57.580642,0.0564 c -31.669352,0.031 -58.3167526,-0.09 -59.2164416,-0.26884 z"
       id="path3"
       inkscape:export-filename="bateria.svg"
       inkscape:export-xdpi="96"
       inkscape:export-ydpi="96" /><path
       style="fill:#dbab23;fill-opacity:1;fill-rule:evenodd;stroke:#dbab23;stroke-width:3.80701;stroke-linecap:butt;stroke-linejoin:round;stroke-dasharray:none;stroke-opacity:1;paint-order:markers fill stroke"
       d="m 343.5019,61.590396 -13.64626,22.205645 13.85531,0.351557 -4.83968,15.683861 15.55669,-21.751363 -13.6006,-1.172731 z"
       id="path2"
       sodipodi:nodetypes="ccccccc"
       inkscape:path-effect="#path-effect2"
       inkscape:original-d="m 343.5019,61.590396 -13.64626,22.205645 13.85531,0.351557 -4.83968,15.683861 15.55669,-21.751363 -13.6006,-1.172731 z"
       transform="translate(-277.44136,-49.964408)" /></g></svg>
