<svg width="266" height="266" viewBox="0 0 266 266" fill="none" xmlns="http://www.w3.org/2000/svg">
<circle cx="133" cy="133" r="132" fill="#C74634" stroke="black" stroke-width="2"/>
<path d="M190.36 229.486H76.64C72.0024 229.486 68.2424 225.726 68.2424 221.088V63.1062C68.2424 58.4686 72.0024 54.7086 76.64 54.7086H190.359C194.997 54.7086 198.757 58.4686 198.757 63.1062V221.088C198.758 225.727 194.998 229.486 190.36 229.486Z" fill="#8C3F0A"/>
<path d="M185.647 66.4438H109.596L77.9938 98.0471V217.083C77.9938 217.974 78.3478 218.829 78.9778 219.459C79.6078 220.089 80.4622 220.443 81.3532 220.443H185.647C186.538 220.443 187.392 220.089 188.022 219.459C188.652 218.829 189.006 217.974 189.006 217.083V69.8031C189.006 68.9122 188.652 68.0577 188.022 67.4277C187.392 66.7977 186.538 66.4438 185.647 66.4438Z" fill="#F1F2F2"/>
<path d="M185.647 66.4438H180.608V208.684C180.608 209.575 180.254 210.429 179.624 211.059C178.994 211.689 178.139 212.043 177.248 212.043H77.9938V217.082C77.9938 217.973 78.3478 218.828 78.9778 219.458C79.6078 220.088 80.4622 220.442 81.3532 220.442H185.647C186.538 220.442 187.392 220.088 188.022 219.458C188.652 218.828 189.006 217.973 189.006 217.082V69.8031C189.006 68.9122 188.652 68.0577 188.022 67.4277C187.392 66.7977 186.538 66.4438 185.647 66.4438Z" fill="#E6E7E8"/>
<path d="M185.647 66.4438H184.807V212.883C184.807 213.774 184.453 214.629 183.823 215.259C183.193 215.889 182.338 216.243 181.447 216.243H77.9938V217.082C77.9938 217.973 78.3478 218.828 78.9778 219.458C79.6078 220.088 80.4622 220.442 81.3532 220.442H185.647C186.538 220.442 187.392 220.088 188.022 219.458C188.652 218.828 189.006 217.973 189.006 217.082V69.8031C189.006 68.9122 188.652 68.0577 188.022 67.4277C187.392 66.7977 186.538 66.4438 185.647 66.4438Z" fill="#D1D3D4"/>
<path d="M83.0338 203.509C82.1099 203.509 81.3541 202.753 81.3541 201.829V111.126C81.3541 110.202 82.1099 109.446 83.0338 109.446C83.9576 109.446 84.7134 110.202 84.7134 111.126V201.829C84.7134 202.752 83.9576 203.509 83.0338 203.509ZM83.0338 106.087C82.1099 106.087 81.3541 105.331 81.3541 104.407C81.3541 103.483 82.1099 102.728 83.0338 102.728C83.9576 102.728 84.7134 103.483 84.7134 104.407C84.7134 105.331 83.9576 106.087 83.0338 106.087Z" fill="white"/>
<path d="M106.237 98.0471H77.9938L109.596 66.4446V94.6877C109.596 95.5787 109.242 96.4331 108.612 97.0632C107.982 97.6932 107.128 98.0471 106.237 98.0471Z" fill="#D1D3D4"/>
<path d="M173.458 112.838H93.5419C92.9648 112.838 92.4113 112.608 92.0032 112.2C91.5951 111.792 91.3658 111.239 91.3658 110.662C91.3658 110.084 91.5951 109.531 92.0032 109.123C92.4113 108.715 92.9648 108.486 93.5419 108.486H173.458C174.035 108.486 174.589 108.715 174.997 109.123C175.405 109.531 175.634 110.084 175.634 110.662C175.634 111.239 175.405 111.792 174.997 112.2C174.589 112.608 174.035 112.838 173.458 112.838ZM173.458 137.783H93.5419C93.2561 137.783 92.9732 137.727 92.7091 137.618C92.4451 137.508 92.2053 137.348 92.0032 137.146C91.8011 136.944 91.6408 136.704 91.5315 136.44C91.4221 136.176 91.3658 135.893 91.3658 135.607C91.3658 135.322 91.4221 135.039 91.5315 134.775C91.6408 134.511 91.8011 134.271 92.0032 134.069C92.2053 133.867 92.4451 133.706 92.7091 133.597C92.9732 133.488 93.2561 133.431 93.5419 133.431H173.458C173.744 133.431 174.027 133.488 174.291 133.597C174.555 133.706 174.795 133.867 174.997 134.069C175.199 134.271 175.359 134.511 175.468 134.775C175.578 135.039 175.634 135.322 175.634 135.607C175.634 135.893 175.578 136.176 175.468 136.44C175.359 136.704 175.199 136.944 174.997 137.146C174.795 137.348 174.555 137.508 174.291 137.618C174.027 137.727 173.744 137.783 173.458 137.783ZM173.458 150.257H93.5419C93.2561 150.257 92.9732 150.201 92.7091 150.091C92.4451 149.982 92.2053 149.822 92.0032 149.619C91.8011 149.417 91.6408 149.178 91.5315 148.914C91.4221 148.65 91.3658 148.367 91.3658 148.081C91.3658 147.795 91.4221 147.512 91.5315 147.248C91.6408 146.984 91.8011 146.744 92.0032 146.542C92.2053 146.34 92.4451 146.18 92.7091 146.07C92.9732 145.961 93.2561 145.905 93.5419 145.905H173.458C173.744 145.905 174.027 145.961 174.291 146.07C174.555 146.18 174.795 146.34 174.997 146.542C175.199 146.744 175.359 146.984 175.468 147.248C175.578 147.512 175.634 147.795 175.634 148.081C175.634 148.367 175.578 148.65 175.468 148.914C175.359 149.178 175.199 149.417 174.997 149.619C174.795 149.822 174.555 149.982 174.291 150.091C174.027 150.201 173.744 150.257 173.458 150.257ZM173.458 162.73H93.5419C92.9648 162.73 92.4113 162.501 92.0032 162.093C91.5951 161.685 91.3658 161.131 91.3658 160.554C91.3658 159.977 91.5951 159.424 92.0032 159.015C92.4113 158.607 92.9648 158.378 93.5419 158.378H173.458C174.035 158.378 174.589 158.607 174.997 159.015C175.405 159.424 175.634 159.977 175.634 160.554C175.634 161.131 175.405 161.685 174.997 162.093C174.589 162.501 174.035 162.73 173.458 162.73ZM173.458 184.27H93.5419C92.9648 184.27 92.4113 184.04 92.0032 183.632C91.5951 183.224 91.3658 182.671 91.3658 182.094C91.3658 181.516 91.5951 180.963 92.0032 180.555C92.4113 180.147 92.9648 179.918 93.5419 179.918H173.458C174.035 179.918 174.589 180.147 174.997 180.555C175.405 180.963 175.634 181.516 175.634 182.094C175.634 182.671 175.405 183.224 174.997 183.632C174.589 184.04 174.035 184.27 173.458 184.27ZM173.458 196.743H93.5419C92.9648 196.743 92.4113 196.514 92.0032 196.106C91.5951 195.698 91.3658 195.144 91.3658 194.567C91.3658 193.99 91.5951 193.436 92.0032 193.028C92.4113 192.62 92.9648 192.391 93.5419 192.391H173.458C174.035 192.391 174.589 192.62 174.997 193.028C175.405 193.436 175.634 193.99 175.634 194.567C175.634 195.144 175.405 195.698 174.997 196.106C174.589 196.514 174.035 196.743 173.458 196.743Z" fill="#939598"/>
<path d="M193.816 55.4502C194.307 56.5364 194.56 57.715 194.558 58.907V216.889C194.558 221.527 190.798 225.287 186.161 225.287H72.4408C71.2488 225.288 70.0702 225.035 68.984 224.544C69.6495 226.017 70.7257 227.267 72.0837 228.144C73.4417 229.02 75.0237 229.486 76.64 229.486H190.359C194.997 229.486 198.757 225.726 198.757 221.088V63.1062C198.757 61.49 198.291 59.9079 197.415 58.5498C196.539 57.1918 195.289 56.1155 193.816 55.4502Z" fill="#6D2E03"/>
<path d="M128.339 47.9714C128.28 47.6543 128.251 47.3324 128.251 47.0098H126.151C126.796 47.4953 127.545 47.8244 128.339 47.9714Z" fill="#F79219"/>
<path d="M133.5 35.514C127.509 35.514 122.653 40.37 122.653 46.3614C122.653 52.352 127.509 57.208 133.5 57.208C139.491 57.208 144.347 52.352 144.347 46.3614C144.347 40.37 139.491 35.514 133.5 35.514Z" fill="#FFA91A"/>
<path d="M138.775 36.8863C139.647 38.4484 140.148 40.2457 140.148 42.1614C140.148 48.152 135.292 53.0079 129.301 53.0079C127.385 53.0079 125.588 52.5066 124.026 51.6348C125.879 54.9572 129.425 57.2072 133.5 57.2072C139.491 57.2072 144.347 52.3512 144.347 46.3606C144.347 42.2857 142.097 38.7398 138.775 36.8863Z" fill="#F79219"/>
<path d="M162.232 75.7056H104.768C102.536 75.7056 100.924 73.5682 101.538 71.4215L108.013 48.7953C108.214 48.0937 108.638 47.4766 109.221 47.0373C109.804 46.5981 110.514 46.3605 111.243 46.3606H155.756C156.486 46.3606 157.196 46.5982 157.778 47.0375C158.361 47.4767 158.785 48.0938 158.986 48.7953L165.461 71.4215C166.076 73.5682 164.464 75.7056 162.232 75.7056Z" fill="#F79219"/>
<path d="M162.488 61.0327L158.986 48.7953C158.785 48.0937 158.361 47.4766 157.778 47.0373C157.196 46.5981 156.486 46.3605 155.756 46.3606H111.243C110.514 46.3606 109.804 46.5982 109.221 47.0375C108.638 47.4767 108.214 48.0938 108.013 48.7953L104.511 61.0327H162.488Z" fill="#FFA91A"/>
<path d="M101.538 71.4215C100.924 73.5682 102.535 75.7056 104.768 75.7056H162.232C164.464 75.7056 166.076 73.5682 165.462 71.4215L164.038 66.4438H102.963L101.538 71.4215Z" fill="#EF7816"/>
</svg>
