<svg width="1920" height="1080" viewBox="0 0 1920 1080" fill="none" xmlns="http://www.w3.org/2000/svg">
<g clip-path="url(#clip0_1_2)">
<rect width="1920" height="1080" fill="#D1D1D1"/>
<line x1="16.5001" y1="-40" x2="16.5001" y2="1109" stroke="black" stroke-opacity="0.2"/>
<line x1="48.5002" y1="-38" x2="48.5001" y2="1111" stroke="black" stroke-opacity="0.2"/>
<line x1="80.5001" y1="-36" x2="80.5001" y2="1113" stroke="black" stroke-opacity="0.2"/>
<line x1="112.5" y1="-34" x2="112.5" y2="1115" stroke="black" stroke-opacity="0.2"/>
<line x1="144.5" y1="-38" x2="144.5" y2="1111" stroke="black" stroke-opacity="0.2"/>
<line x1="176.5" y1="-36" x2="176.5" y2="1113" stroke="black" stroke-opacity="0.2"/>
<line x1="208.5" y1="-38" x2="208.5" y2="1111" stroke="black" stroke-opacity="0.2"/>
<line x1="240.5" y1="-36" x2="240.5" y2="1113" stroke="black" stroke-opacity="0.2"/>
<line x1="272.5" y1="-40" x2="272.5" y2="1109" stroke="black" stroke-opacity="0.2"/>
<line x1="304.5" y1="-38" x2="304.5" y2="1111" stroke="black" stroke-opacity="0.2"/>
<line x1="336.5" y1="-36" x2="336.5" y2="1113" stroke="black" stroke-opacity="0.2"/>
<line x1="368.5" y1="-34" x2="368.5" y2="1115" stroke="black" stroke-opacity="0.2"/>
<line x1="400.5" y1="-38" x2="400.5" y2="1111" stroke="black" stroke-opacity="0.2"/>
<line x1="432.5" y1="-36" x2="432.5" y2="1113" stroke="black" stroke-opacity="0.2"/>
<line x1="464.5" y1="-40" x2="464.5" y2="1109" stroke="black" stroke-opacity="0.2"/>
<line x1="496.5" y1="-38" x2="496.5" y2="1111" stroke="black" stroke-opacity="0.2"/>
<line x1="528.5" y1="-42" x2="528.5" y2="1107" stroke="black" stroke-opacity="0.2"/>
<line x1="560.5" y1="-40" x2="560.5" y2="1109" stroke="black" stroke-opacity="0.2"/>
<line x1="592.5" y1="-38" x2="592.5" y2="1111" stroke="black" stroke-opacity="0.2"/>
<line x1="624.5" y1="-36" x2="624.5" y2="1113" stroke="black" stroke-opacity="0.2"/>
<line x1="656.5" y1="-40" x2="656.5" y2="1109" stroke="black" stroke-opacity="0.2"/>
<line x1="688.5" y1="-38" x2="688.5" y2="1111" stroke="black" stroke-opacity="0.2"/>
<line x1="720.5" y1="-40" x2="720.5" y2="1109" stroke="black" stroke-opacity="0.2"/>
<line x1="752.5" y1="-38" x2="752.5" y2="1111" stroke="black" stroke-opacity="0.2"/>
<line x1="784.5" y1="-42" x2="784.5" y2="1107" stroke="black" stroke-opacity="0.2"/>
<line x1="816.5" y1="-40" x2="816.5" y2="1109" stroke="black" stroke-opacity="0.2"/>
<line x1="848.5" y1="-38" x2="848.5" y2="1111" stroke="black" stroke-opacity="0.2"/>
<line x1="880.5" y1="-36" x2="880.5" y2="1113" stroke="black" stroke-opacity="0.2"/>
<line x1="912.5" y1="-40" x2="912.5" y2="1109" stroke="black" stroke-opacity="0.2"/>
<line x1="944.5" y1="-38" x2="944.5" y2="1111" stroke="black" stroke-opacity="0.2"/>
<line x1="976.5" y1="-32" x2="976.5" y2="1117" stroke="black" stroke-opacity="0.2"/>
<line x1="1008.5" y1="-30" x2="1008.5" y2="1119" stroke="black" stroke-opacity="0.2"/>
<line x1="1040.5" y1="-34" x2="1040.5" y2="1115" stroke="black" stroke-opacity="0.2"/>
<line x1="1072.5" y1="-32" x2="1072.5" y2="1117" stroke="black" stroke-opacity="0.2"/>
<line x1="1104.5" y1="-30" x2="1104.5" y2="1119" stroke="black" stroke-opacity="0.2"/>
<line x1="1136.5" y1="-28" x2="1136.5" y2="1121" stroke="black" stroke-opacity="0.2"/>
<line x1="1168.5" y1="-32" x2="1168.5" y2="1117" stroke="black" stroke-opacity="0.2"/>
<line x1="1200.5" y1="-30" x2="1200.5" y2="1119" stroke="black" stroke-opacity="0.2"/>
<line x1="1232.5" y1="-32" x2="1232.5" y2="1117" stroke="black" stroke-opacity="0.2"/>
<line x1="1264.5" y1="-30" x2="1264.5" y2="1119" stroke="black" stroke-opacity="0.2"/>
<line x1="1296.5" y1="-34" x2="1296.5" y2="1115" stroke="black" stroke-opacity="0.2"/>
<line x1="1328.5" y1="-32" x2="1328.5" y2="1117" stroke="black" stroke-opacity="0.2"/>
<line x1="1360.5" y1="-30" x2="1360.5" y2="1119" stroke="black" stroke-opacity="0.2"/>
<line x1="1392.5" y1="-28" x2="1392.5" y2="1121" stroke="black" stroke-opacity="0.2"/>
<line x1="1424.5" y1="-32" x2="1424.5" y2="1117" stroke="black" stroke-opacity="0.2"/>
<line x1="1456.5" y1="-30" x2="1456.5" y2="1119" stroke="black" stroke-opacity="0.2"/>
<line x1="1488.5" y1="-34" x2="1488.5" y2="1115" stroke="black" stroke-opacity="0.2"/>
<line x1="1520.5" y1="-32" x2="1520.5" y2="1117" stroke="black" stroke-opacity="0.2"/>
<line x1="1552.5" y1="-36" x2="1552.5" y2="1113" stroke="black" stroke-opacity="0.2"/>
<line x1="1584.5" y1="-34" x2="1584.5" y2="1115" stroke="black" stroke-opacity="0.2"/>
<line x1="1616.5" y1="-32" x2="1616.5" y2="1117" stroke="black" stroke-opacity="0.2"/>
<line x1="1648.5" y1="-30" x2="1648.5" y2="1119" stroke="black" stroke-opacity="0.2"/>
<line x1="1680.5" y1="-34" x2="1680.5" y2="1115" stroke="black" stroke-opacity="0.2"/>
<line x1="1712.5" y1="-32" x2="1712.5" y2="1117" stroke="black" stroke-opacity="0.2"/>
<line x1="1744.5" y1="-34" x2="1744.5" y2="1115" stroke="black" stroke-opacity="0.2"/>
<line x1="1776.5" y1="-32" x2="1776.5" y2="1117" stroke="black" stroke-opacity="0.2"/>
<line x1="1808.5" y1="-36" x2="1808.5" y2="1113" stroke="black" stroke-opacity="0.2"/>
<line x1="1840.5" y1="-34" x2="1840.5" y2="1115" stroke="black" stroke-opacity="0.2"/>
<line x1="1872.5" y1="-32" x2="1872.5" y2="1117" stroke="black" stroke-opacity="0.2"/>
<line x1="1904.5" y1="-30" x2="1904.5" y2="1119" stroke="black" stroke-opacity="0.2"/>
<line x1="-42.4712" y1="1078.7" x2="1984.83" y2="1078.7" stroke="black" stroke-opacity="0.2"/>
<line x1="-38.9424" y1="1032.76" x2="1988.36" y2="1032.76" stroke="black" stroke-opacity="0.2"/>
<line x1="-35.4136" y1="986.827" x2="1991.88" y2="986.827" stroke="black" stroke-opacity="0.2"/>
<line x1="-42.4712" y1="940.891" x2="1984.83" y2="940.891" stroke="black" stroke-opacity="0.2"/>
<line x1="-38.9424" y1="894.955" x2="1988.36" y2="894.955" stroke="black" stroke-opacity="0.2"/>
<line x1="-42.4712" y1="849.018" x2="1984.83" y2="849.018" stroke="black" stroke-opacity="0.2"/>
<line x1="-38.9424" y1="803.082" x2="1988.36" y2="803.082" stroke="black" stroke-opacity="0.2"/>
<line x1="-46" y1="757.145" x2="1981.3" y2="757.145" stroke="black" stroke-opacity="0.2"/>
<line x1="-42.4712" y1="711.209" x2="1984.83" y2="711.209" stroke="black" stroke-opacity="0.2"/>
<line x1="-38.9424" y1="665.272" x2="1988.36" y2="665.273" stroke="black" stroke-opacity="0.2"/>
<line x1="-35.4136" y1="619.336" x2="1991.88" y2="619.336" stroke="black" stroke-opacity="0.2"/>
<line x1="-42.4712" y1="573.4" x2="1984.83" y2="573.4" stroke="black" stroke-opacity="0.2"/>
<line x1="-38.9424" y1="527.464" x2="1988.36" y2="527.464" stroke="black" stroke-opacity="0.2"/>
<line x1="-28.356" y1="481.527" x2="1998.94" y2="481.527" stroke="black" stroke-opacity="0.2"/>
<line x1="-24.8271" y1="435.591" x2="2002.47" y2="435.591" stroke="black" stroke-opacity="0.2"/>
<line x1="-31.8848" y1="389.654" x2="1995.41" y2="389.654" stroke="black" stroke-opacity="0.2"/>
<line x1="-28.356" y1="343.718" x2="1998.94" y2="343.718" stroke="black" stroke-opacity="0.2"/>
<line x1="-24.8271" y1="297.782" x2="2002.47" y2="297.782" stroke="black" stroke-opacity="0.2"/>
<line x1="-21.2983" y1="251.845" x2="2006" y2="251.845" stroke="black" stroke-opacity="0.2"/>
<line x1="-28.356" y1="205.909" x2="1998.94" y2="205.909" stroke="black" stroke-opacity="0.2"/>
<line x1="-24.8271" y1="159.973" x2="2002.47" y2="159.973" stroke="black" stroke-opacity="0.2"/>
<line x1="-28.356" y1="114.036" x2="1998.94" y2="114.036" stroke="black" stroke-opacity="0.2"/>
<line x1="-24.8271" y1="68.1" x2="2002.47" y2="68.1" stroke="black" stroke-opacity="0.2"/>
<line x1="-31.8848" y1="22.1636" x2="1995.41" y2="22.1636" stroke="black" stroke-opacity="0.2"/>
<line x1="331.197" y1="672.196" x2="648.892" y2="415.073" stroke="url(#paint0_linear_1_2)" stroke-width="100"/>
<line x1="937.085" y1="682.018" x2="1243.83" y2="411.929" stroke="#D9D9D9" stroke-width="100"/>
<line x1="686.039" y1="420.471" x2="992.804" y2="690.541" stroke="#D9D9D9" stroke-width="100"/>
<line x1="1281.31" y1="419.608" x2="1595.04" y2="681.555" stroke="#D9D9D9" stroke-width="100"/>
<circle cx="656" cy="407" r="132" fill="#D9D9D9" stroke="black" stroke-width="2"/>
<circle cx="1264" cy="407" r="132" fill="#D9D9D9" stroke="black" stroke-width="2"/>
<circle cx="960" cy="673" r="132" fill="#D9D9D9" stroke="black" stroke-width="2"/>
<circle cx="1568" cy="673" r="132" fill="#D9D9D9" stroke="black" stroke-width="2"/>
<path d="M685.855 412.719V372.926C685.855 356.738 672.688 343.57 656.5 343.57C640.312 343.57 627.145 356.738 627.145 372.926V412.719H607.574V372.926C607.574 345.95 629.524 324 656.5 324C683.476 324 705.426 345.95 705.426 372.926V412.719H685.855Z" fill="#C4CAD9"/>
<path d="M685.855 372.926V412.719H705.426V372.926C705.426 345.95 683.476 324 656.5 324V343.57C672.688 343.57 685.855 356.738 685.855 372.926Z" fill="#BBC2CD"/>
<path d="M705.426 491H607.574C599.481 491 592.896 484.416 592.896 476.322V417.611C592.896 409.518 599.481 402.934 607.574 402.934H705.426C713.519 402.934 720.104 409.518 720.104 417.611V476.322C720.104 484.416 713.519 491 705.426 491Z" fill="#FCB33B"/>
<path d="M705.426 402.934H656.5V491H705.426C713.519 491 720.104 484.416 720.104 476.322V417.611C720.104 409.518 713.519 402.934 705.426 402.934Z" fill="#F69838"/>
<path d="M671.178 437.182C671.178 429.088 664.594 422.504 656.5 422.504C648.406 422.504 641.822 429.088 641.822 437.182C641.822 443.555 645.924 448.935 651.607 450.961V466.537C651.607 469.241 653.796 471.43 656.5 471.43C659.204 471.43 661.393 469.241 661.393 466.537V450.961C667.076 448.935 671.178 443.555 671.178 437.182Z" fill="#5C5F66"/>
<path d="M661.393 466.537V450.961C667.076 448.935 671.178 443.555 671.178 437.182C671.178 429.088 664.594 422.504 656.5 422.504V471.43C659.204 471.43 661.393 469.241 661.393 466.537Z" fill="#53565C"/>
<path d="M989.855 679.719V639.926C989.855 623.738 976.688 610.57 960.5 610.57C944.312 610.57 931.145 623.738 931.145 639.926V679.719H911.574V639.926C911.574 612.95 933.524 591 960.5 591C987.476 591 1009.43 612.95 1009.43 639.926V679.719H989.855Z" fill="#C4CAD9"/>
<path d="M989.855 639.926V679.719H1009.43V639.926C1009.43 612.95 987.476 591 960.5 591V610.57C976.688 610.57 989.855 623.738 989.855 639.926Z" fill="#BBC2CD"/>
<path d="M1009.43 758H911.574C903.481 758 896.896 751.416 896.896 743.322V684.611C896.896 676.518 903.481 669.934 911.574 669.934H1009.43C1017.52 669.934 1024.1 676.518 1024.1 684.611V743.322C1024.1 751.416 1017.52 758 1009.43 758Z" fill="#FCB33B"/>
<path d="M1009.43 669.934H960.5V758H1009.43C1017.52 758 1024.1 751.416 1024.1 743.322V684.611C1024.1 676.518 1017.52 669.934 1009.43 669.934Z" fill="#F69838"/>
<path d="M975.178 704.182C975.178 696.088 968.594 689.504 960.5 689.504C952.406 689.504 945.822 696.088 945.822 704.182C945.822 710.555 949.924 715.935 955.607 717.961V733.537C955.607 736.241 957.796 738.43 960.5 738.43C963.204 738.43 965.393 736.241 965.393 733.537V717.961C971.076 715.935 975.178 710.555 975.178 704.182Z" fill="#5C5F66"/>
<path d="M965.393 733.537V717.961C971.076 715.935 975.178 710.555 975.178 704.182C975.178 696.088 968.594 689.504 960.5 689.504V738.43C963.204 738.43 965.393 736.241 965.393 733.537Z" fill="#53565C"/>
<path d="M1292.86 412.719V372.926C1292.86 356.738 1279.69 343.57 1263.5 343.57C1247.31 343.57 1234.14 356.738 1234.14 372.926V412.719H1214.57V372.926C1214.57 345.95 1236.52 324 1263.5 324C1290.48 324 1312.43 345.95 1312.43 372.926V412.719H1292.86Z" fill="#C4CAD9"/>
<path d="M1292.86 372.926V412.719H1312.43V372.926C1312.43 345.95 1290.48 324 1263.5 324V343.57C1279.69 343.57 1292.86 356.738 1292.86 372.926Z" fill="#BBC2CD"/>
<path d="M1312.43 491H1214.57C1206.48 491 1199.9 484.416 1199.9 476.322V417.611C1199.9 409.518 1206.48 402.934 1214.57 402.934H1312.43C1320.52 402.934 1327.1 409.518 1327.1 417.611V476.322C1327.1 484.416 1320.52 491 1312.43 491Z" fill="#FCB33B"/>
<path d="M1312.43 402.934H1263.5V491H1312.43C1320.52 491 1327.1 484.416 1327.1 476.322V417.611C1327.1 409.518 1320.52 402.934 1312.43 402.934Z" fill="#F69838"/>
<path d="M1278.18 437.182C1278.18 429.088 1271.59 422.504 1263.5 422.504C1255.41 422.504 1248.82 429.088 1248.82 437.182C1248.82 443.555 1252.92 448.935 1258.61 450.961V466.537C1258.61 469.241 1260.8 471.43 1263.5 471.43C1266.2 471.43 1268.39 469.241 1268.39 466.537V450.961C1274.08 448.935 1278.18 443.555 1278.18 437.182Z" fill="#5C5F66"/>
<path d="M1268.39 466.537V450.961C1274.08 448.935 1278.18 443.555 1278.18 437.182C1278.18 429.088 1271.59 422.504 1263.5 422.504V471.43C1266.2 471.43 1268.39 469.241 1268.39 466.537Z" fill="#53565C"/>
<path d="M264.375 860.281C264.375 860.615 264.365 860.906 264.344 861.156C264.323 861.406 264.281 861.625 264.219 861.812C264.177 862 264.115 862.167 264.031 862.312C263.948 862.458 263.802 862.635 263.594 862.844C263.385 863.052 262.948 863.375 262.281 863.812C261.615 864.229 260.781 864.646 259.781 865.062C258.802 865.458 257.667 865.792 256.375 866.062C255.104 866.354 253.708 866.5 252.188 866.5C249.562 866.5 247.188 866.062 245.062 865.188C242.958 864.312 241.156 863.021 239.656 861.312C238.177 859.604 237.031 857.5 236.219 855C235.427 852.479 235.031 849.583 235.031 846.312C235.031 842.958 235.458 839.969 236.312 837.344C237.188 834.719 238.406 832.5 239.969 830.688C241.531 828.854 243.396 827.458 245.562 826.5C247.75 825.542 250.167 825.062 252.812 825.062C253.979 825.062 255.115 825.177 256.219 825.406C257.323 825.615 258.344 825.885 259.281 826.219C260.219 826.552 261.052 826.938 261.781 827.375C262.51 827.812 263.01 828.177 263.281 828.469C263.573 828.74 263.76 828.948 263.844 829.094C263.927 829.24 263.99 829.417 264.031 829.625C264.094 829.812 264.135 830.042 264.156 830.312C264.198 830.583 264.219 830.906 264.219 831.281C264.219 831.698 264.198 832.052 264.156 832.344C264.115 832.635 264.052 832.885 263.969 833.094C263.885 833.281 263.781 833.427 263.656 833.531C263.552 833.615 263.417 833.656 263.25 833.656C262.958 833.656 262.552 833.458 262.031 833.062C261.51 832.646 260.833 832.198 260 831.719C259.188 831.219 258.188 830.771 257 830.375C255.833 829.958 254.427 829.75 252.781 829.75C250.99 829.75 249.354 830.115 247.875 830.844C246.417 831.552 245.167 832.604 244.125 834C243.083 835.396 242.271 837.104 241.688 839.125C241.125 841.125 240.844 843.417 240.844 846C240.844 848.562 241.115 850.833 241.656 852.812C242.219 854.771 243.01 856.417 244.031 857.75C245.073 859.062 246.344 860.062 247.844 860.75C249.344 861.417 251.042 861.75 252.938 861.75C254.542 861.75 255.938 861.552 257.125 861.156C258.333 860.76 259.354 860.323 260.188 859.844C261.042 859.344 261.74 858.896 262.281 858.5C262.823 858.104 263.25 857.906 263.562 857.906C263.708 857.906 263.833 857.938 263.938 858C264.042 858.062 264.125 858.188 264.188 858.375C264.25 858.542 264.292 858.781 264.312 859.094C264.354 859.406 264.375 859.802 264.375 860.281ZM292.094 865.25C292.094 865.5 292.01 865.688 291.844 865.812C291.677 865.938 291.448 866.031 291.156 866.094C290.865 866.156 290.438 866.188 289.875 866.188C289.333 866.188 288.896 866.156 288.562 866.094C288.25 866.031 288.021 865.938 287.875 865.812C287.729 865.688 287.656 865.5 287.656 865.25V862.438C286.427 863.75 285.052 864.771 283.531 865.5C282.031 866.229 280.438 866.594 278.75 866.594C277.271 866.594 275.927 866.396 274.719 866C273.531 865.625 272.51 865.073 271.656 864.344C270.823 863.615 270.167 862.719 269.688 861.656C269.229 860.594 269 859.385 269 858.031C269 856.448 269.323 855.073 269.969 853.906C270.615 852.74 271.542 851.771 272.75 851C273.958 850.229 275.438 849.656 277.188 849.281C278.938 848.885 280.906 848.688 283.094 848.688H286.969V846.5C286.969 845.417 286.854 844.458 286.625 843.625C286.396 842.792 286.021 842.104 285.5 841.562C285 841 284.344 840.583 283.531 840.312C282.719 840.021 281.719 839.875 280.531 839.875C279.26 839.875 278.115 840.031 277.094 840.344C276.094 840.635 275.208 840.969 274.438 841.344C273.688 841.698 273.052 842.031 272.531 842.344C272.031 842.635 271.656 842.781 271.406 842.781C271.24 842.781 271.094 842.74 270.969 842.656C270.844 842.573 270.729 842.448 270.625 842.281C270.542 842.115 270.479 841.906 270.438 841.656C270.396 841.385 270.375 841.094 270.375 840.781C270.375 840.26 270.406 839.854 270.469 839.562C270.552 839.25 270.729 838.958 271 838.688C271.292 838.417 271.781 838.104 272.469 837.75C273.156 837.375 273.948 837.042 274.844 836.75C275.74 836.438 276.719 836.188 277.781 836C278.844 835.792 279.917 835.688 281 835.688C283.021 835.688 284.74 835.917 286.156 836.375C287.573 836.833 288.719 837.51 289.594 838.406C290.469 839.281 291.104 840.375 291.5 841.688C291.896 843 292.094 844.531 292.094 846.281V865.25ZM286.969 852.406H282.562C281.146 852.406 279.917 852.531 278.875 852.781C277.833 853.01 276.969 853.365 276.281 853.844C275.594 854.302 275.083 854.865 274.75 855.531C274.438 856.177 274.281 856.927 274.281 857.781C274.281 859.24 274.74 860.406 275.656 861.281C276.594 862.135 277.896 862.562 279.562 862.562C280.917 862.562 282.167 862.219 283.312 861.531C284.479 860.844 285.698 859.792 286.969 858.375V852.406ZM325.688 865.219C325.688 865.385 325.646 865.531 325.562 865.656C325.5 865.781 325.375 865.885 325.188 865.969C325.021 866.031 324.792 866.083 324.5 866.125C324.208 866.167 323.854 866.188 323.438 866.188C323 866.188 322.635 866.167 322.344 866.125C322.052 866.083 321.812 866.031 321.625 865.969C321.438 865.885 321.302 865.781 321.219 865.656C321.135 865.531 321.094 865.385 321.094 865.219V861.5C319.615 863.104 318.073 864.354 316.469 865.25C314.885 866.146 313.146 866.594 311.25 866.594C309.188 866.594 307.427 866.198 305.969 865.406C304.51 864.594 303.323 863.51 302.406 862.156C301.51 860.781 300.854 859.177 300.438 857.344C300.021 855.49 299.812 853.542 299.812 851.5C299.812 849.083 300.073 846.906 300.594 844.969C301.115 843.01 301.885 841.344 302.906 839.969C303.927 838.594 305.188 837.542 306.688 836.812C308.208 836.062 309.958 835.688 311.938 835.688C313.583 835.688 315.083 836.052 316.438 836.781C317.812 837.49 319.167 838.542 320.5 839.938V823.594C320.5 823.448 320.531 823.312 320.594 823.188C320.677 823.042 320.823 822.938 321.031 822.875C321.24 822.792 321.5 822.729 321.812 822.688C322.146 822.625 322.562 822.594 323.062 822.594C323.583 822.594 324.01 822.625 324.344 822.688C324.677 822.729 324.938 822.792 325.125 822.875C325.312 822.938 325.448 823.042 325.531 823.188C325.635 823.312 325.688 823.448 325.688 823.594V865.219ZM320.5 845.438C319.104 843.708 317.75 842.396 316.438 841.5C315.146 840.583 313.792 840.125 312.375 840.125C311.062 840.125 309.948 840.438 309.031 841.062C308.115 841.688 307.365 842.51 306.781 843.531C306.219 844.552 305.802 845.708 305.531 847C305.281 848.292 305.156 849.604 305.156 850.938C305.156 852.354 305.26 853.74 305.469 855.094C305.698 856.448 306.083 857.656 306.625 858.719C307.167 859.76 307.885 860.604 308.781 861.25C309.677 861.875 310.802 862.188 312.156 862.188C312.844 862.188 313.5 862.094 314.125 861.906C314.771 861.719 315.427 861.406 316.094 860.969C316.76 860.531 317.458 859.969 318.188 859.281C318.917 858.573 319.688 857.708 320.5 856.688V845.438ZM356.406 865.25C356.406 865.5 356.323 865.688 356.156 865.812C355.99 865.938 355.76 866.031 355.469 866.094C355.177 866.156 354.75 866.188 354.188 866.188C353.646 866.188 353.208 866.156 352.875 866.094C352.562 866.031 352.333 865.938 352.188 865.812C352.042 865.688 351.969 865.5 351.969 865.25V862.438C350.74 863.75 349.365 864.771 347.844 865.5C346.344 866.229 344.75 866.594 343.062 866.594C341.583 866.594 340.24 866.396 339.031 866C337.844 865.625 336.823 865.073 335.969 864.344C335.135 863.615 334.479 862.719 334 861.656C333.542 860.594 333.312 859.385 333.312 858.031C333.312 856.448 333.635 855.073 334.281 853.906C334.927 852.74 335.854 851.771 337.062 851C338.271 850.229 339.75 849.656 341.5 849.281C343.25 848.885 345.219 848.688 347.406 848.688H351.281V846.5C351.281 845.417 351.167 844.458 350.938 843.625C350.708 842.792 350.333 842.104 349.812 841.562C349.312 841 348.656 840.583 347.844 840.312C347.031 840.021 346.031 839.875 344.844 839.875C343.573 839.875 342.427 840.031 341.406 840.344C340.406 840.635 339.521 840.969 338.75 841.344C338 841.698 337.365 842.031 336.844 842.344C336.344 842.635 335.969 842.781 335.719 842.781C335.552 842.781 335.406 842.74 335.281 842.656C335.156 842.573 335.042 842.448 334.938 842.281C334.854 842.115 334.792 841.906 334.75 841.656C334.708 841.385 334.688 841.094 334.688 840.781C334.688 840.26 334.719 839.854 334.781 839.562C334.865 839.25 335.042 838.958 335.312 838.688C335.604 838.417 336.094 838.104 336.781 837.75C337.469 837.375 338.26 837.042 339.156 836.75C340.052 836.438 341.031 836.188 342.094 836C343.156 835.792 344.229 835.688 345.312 835.688C347.333 835.688 349.052 835.917 350.469 836.375C351.885 836.833 353.031 837.51 353.906 838.406C354.781 839.281 355.417 840.375 355.812 841.688C356.208 843 356.406 844.531 356.406 846.281V865.25ZM351.281 852.406H346.875C345.458 852.406 344.229 852.531 343.188 852.781C342.146 853.01 341.281 853.365 340.594 853.844C339.906 854.302 339.396 854.865 339.062 855.531C338.75 856.177 338.594 856.927 338.594 857.781C338.594 859.24 339.052 860.406 339.969 861.281C340.906 862.135 342.208 862.562 343.875 862.562C345.229 862.562 346.479 862.219 347.625 861.531C348.792 860.844 350.01 859.792 351.281 858.375V852.406ZM383.562 857.562C383.562 859 383.292 860.281 382.75 861.406C382.229 862.531 381.479 863.479 380.5 864.25C379.521 865.021 378.354 865.604 377 866C375.646 866.396 374.156 866.594 372.531 866.594C371.531 866.594 370.573 866.51 369.656 866.344C368.76 866.198 367.948 866.01 367.219 865.781C366.51 865.531 365.906 865.281 365.406 865.031C364.906 864.76 364.542 864.521 364.312 864.312C364.083 864.104 363.917 863.812 363.812 863.438C363.708 863.062 363.656 862.552 363.656 861.906C363.656 861.51 363.677 861.177 363.719 860.906C363.76 860.635 363.812 860.417 363.875 860.25C363.938 860.083 364.021 859.969 364.125 859.906C364.25 859.823 364.385 859.781 364.531 859.781C364.76 859.781 365.094 859.927 365.531 860.219C365.99 860.49 366.542 860.792 367.188 861.125C367.854 861.458 368.635 861.771 369.531 862.062C370.427 862.333 371.458 862.469 372.625 862.469C373.5 862.469 374.292 862.375 375 862.188C375.708 862 376.323 861.729 376.844 861.375C377.365 861 377.76 860.531 378.031 859.969C378.323 859.406 378.469 858.74 378.469 857.969C378.469 857.177 378.26 856.51 377.844 855.969C377.448 855.427 376.917 854.948 376.25 854.531C375.583 854.115 374.833 853.75 374 853.438C373.167 853.104 372.302 852.76 371.406 852.406C370.531 852.052 369.667 851.656 368.812 851.219C367.979 850.76 367.229 850.208 366.562 849.562C365.896 848.917 365.354 848.146 364.938 847.25C364.542 846.354 364.344 845.281 364.344 844.031C364.344 842.927 364.552 841.875 364.969 840.875C365.406 839.854 366.052 838.969 366.906 838.219C367.76 837.448 368.823 836.833 370.094 836.375C371.385 835.917 372.885 835.688 374.594 835.688C375.344 835.688 376.094 835.75 376.844 835.875C377.594 836 378.271 836.156 378.875 836.344C379.479 836.531 379.99 836.74 380.406 836.969C380.844 837.177 381.167 837.365 381.375 837.531C381.604 837.698 381.75 837.844 381.812 837.969C381.896 838.094 381.948 838.24 381.969 838.406C382.01 838.552 382.042 838.74 382.062 838.969C382.104 839.198 382.125 839.479 382.125 839.812C382.125 840.167 382.104 840.479 382.062 840.75C382.042 841 381.99 841.208 381.906 841.375C381.844 841.542 381.76 841.667 381.656 841.75C381.552 841.812 381.438 841.844 381.312 841.844C381.125 841.844 380.854 841.729 380.5 841.5C380.146 841.271 379.688 841.031 379.125 840.781C378.562 840.51 377.896 840.26 377.125 840.031C376.375 839.802 375.51 839.688 374.531 839.688C373.656 839.688 372.885 839.792 372.219 840C371.552 840.188 371 840.469 370.562 840.844C370.146 841.198 369.823 841.625 369.594 842.125C369.385 842.625 369.281 843.167 369.281 843.75C369.281 844.562 369.49 845.25 369.906 845.812C370.323 846.354 370.865 846.833 371.531 847.25C372.198 847.667 372.958 848.042 373.812 848.375C374.667 848.708 375.531 849.052 376.406 849.406C377.302 849.76 378.177 850.156 379.031 850.594C379.906 851.031 380.677 851.562 381.344 852.188C382.01 852.812 382.542 853.562 382.938 854.438C383.354 855.312 383.562 856.354 383.562 857.562ZM404.844 863.156C404.844 863.76 404.802 864.24 404.719 864.594C404.635 864.948 404.51 865.208 404.344 865.375C404.177 865.542 403.927 865.698 403.594 865.844C403.26 865.99 402.875 866.104 402.438 866.188C402.021 866.292 401.573 866.375 401.094 866.438C400.615 866.5 400.135 866.531 399.656 866.531C398.198 866.531 396.948 866.344 395.906 865.969C394.865 865.573 394.01 864.99 393.344 864.219C392.677 863.427 392.188 862.438 391.875 861.25C391.583 860.042 391.438 858.625 391.438 857V840.562H387.5C387.188 840.562 386.938 840.396 386.75 840.062C386.562 839.729 386.469 839.188 386.469 838.438C386.469 838.042 386.49 837.708 386.531 837.438C386.594 837.167 386.667 836.948 386.75 836.781C386.833 836.594 386.938 836.469 387.062 836.406C387.208 836.323 387.365 836.281 387.531 836.281H391.438V829.594C391.438 829.448 391.469 829.312 391.531 829.188C391.615 829.062 391.75 828.958 391.938 828.875C392.146 828.771 392.417 828.698 392.75 828.656C393.083 828.615 393.5 828.594 394 828.594C394.521 828.594 394.948 828.615 395.281 828.656C395.615 828.698 395.875 828.771 396.062 828.875C396.25 828.958 396.385 829.062 396.469 829.188C396.552 829.312 396.594 829.448 396.594 829.594V836.281H403.812C403.979 836.281 404.125 836.323 404.25 836.406C404.375 836.469 404.479 836.594 404.562 836.781C404.667 836.948 404.74 837.167 404.781 837.438C404.823 837.708 404.844 838.042 404.844 838.438C404.844 839.188 404.75 839.729 404.562 840.062C404.375 840.396 404.125 840.562 403.812 840.562H396.594V856.25C396.594 858.188 396.875 859.656 397.438 860.656C398.021 861.635 399.052 862.125 400.531 862.125C401.01 862.125 401.438 862.083 401.812 862C402.188 861.896 402.521 861.792 402.812 861.688C403.104 861.583 403.354 861.49 403.562 861.406C403.771 861.302 403.958 861.25 404.125 861.25C404.229 861.25 404.323 861.281 404.406 861.344C404.51 861.385 404.583 861.479 404.625 861.625C404.688 861.771 404.74 861.969 404.781 862.219C404.823 862.469 404.844 862.781 404.844 863.156ZM428.094 838.938C428.094 839.396 428.083 839.781 428.062 840.094C428.042 840.406 428 840.656 427.938 840.844C427.875 841.01 427.792 841.146 427.688 841.25C427.604 841.333 427.479 841.375 427.312 841.375C427.146 841.375 426.938 841.333 426.688 841.25C426.458 841.146 426.188 841.052 425.875 840.969C425.583 840.865 425.25 840.771 424.875 840.688C424.5 840.604 424.094 840.562 423.656 840.562C423.135 840.562 422.625 840.667 422.125 840.875C421.625 841.083 421.094 841.427 420.531 841.906C419.99 842.385 419.417 843.021 418.812 843.812C418.208 844.604 417.542 845.573 416.812 846.719V865.219C416.812 865.385 416.771 865.531 416.688 865.656C416.604 865.76 416.469 865.854 416.281 865.938C416.094 866.021 415.833 866.083 415.5 866.125C415.167 866.167 414.74 866.188 414.219 866.188C413.719 866.188 413.302 866.167 412.969 866.125C412.635 866.083 412.365 866.021 412.156 865.938C411.969 865.854 411.833 865.76 411.75 865.656C411.688 865.531 411.656 865.385 411.656 865.219V837.094C411.656 836.927 411.688 836.792 411.75 836.688C411.812 836.562 411.938 836.458 412.125 836.375C412.312 836.271 412.552 836.208 412.844 836.188C413.135 836.146 413.521 836.125 414 836.125C414.458 836.125 414.833 836.146 415.125 836.188C415.438 836.208 415.677 836.271 415.844 836.375C416.01 836.458 416.125 836.562 416.188 836.688C416.271 836.792 416.312 836.927 416.312 837.094V841.188C417.083 840.062 417.802 839.146 418.469 838.438C419.156 837.729 419.802 837.177 420.406 836.781C421.01 836.365 421.604 836.083 422.188 835.938C422.792 835.771 423.396 835.688 424 835.688C424.271 835.688 424.573 835.708 424.906 835.75C425.26 835.771 425.625 835.823 426 835.906C426.375 835.99 426.708 836.083 427 836.188C427.312 836.292 427.531 836.396 427.656 836.5C427.781 836.604 427.865 836.708 427.906 836.812C427.948 836.896 427.979 837.01 428 837.156C428.042 837.302 428.062 837.521 428.062 837.812C428.083 838.083 428.094 838.458 428.094 838.938ZM459.062 850.844C459.062 853.135 458.76 855.25 458.156 857.188C457.552 859.104 456.646 860.76 455.438 862.156C454.25 863.552 452.75 864.646 450.938 865.438C449.146 866.208 447.062 866.594 444.688 866.594C442.375 866.594 440.354 866.25 438.625 865.562C436.917 864.875 435.49 863.875 434.344 862.562C433.198 861.25 432.344 859.656 431.781 857.781C431.219 855.906 430.938 853.781 430.938 851.406C430.938 849.115 431.229 847.01 431.812 845.094C432.417 843.156 433.312 841.49 434.5 840.094C435.708 838.698 437.208 837.615 439 836.844C440.792 836.073 442.885 835.688 445.281 835.688C447.594 835.688 449.604 836.031 451.312 836.719C453.042 837.406 454.479 838.406 455.625 839.719C456.771 841.031 457.625 842.625 458.188 844.5C458.771 846.375 459.062 848.49 459.062 850.844ZM453.625 851.188C453.625 849.667 453.479 848.229 453.188 846.875C452.917 845.521 452.458 844.333 451.812 843.312C451.167 842.292 450.292 841.49 449.188 840.906C448.083 840.302 446.708 840 445.062 840C443.542 840 442.229 840.271 441.125 840.812C440.042 841.354 439.146 842.125 438.438 843.125C437.729 844.104 437.198 845.271 436.844 846.625C436.51 847.979 436.344 849.458 436.344 851.062C436.344 852.604 436.479 854.052 436.75 855.406C437.042 856.76 437.51 857.948 438.156 858.969C438.823 859.969 439.708 860.771 440.812 861.375C441.917 861.958 443.292 862.25 444.938 862.25C446.438 862.25 447.74 861.979 448.844 861.438C449.948 860.896 450.854 860.135 451.562 859.156C452.271 858.177 452.792 857.01 453.125 855.656C453.458 854.302 453.625 852.812 453.625 851.188Z" fill="black"/>
<path d="M531.219 223.406C531.219 225.427 530.885 227.25 530.219 228.875C529.552 230.5 528.594 231.885 527.344 233.031C526.115 234.177 524.594 235.062 522.781 235.688C520.99 236.312 518.844 236.625 516.344 236.625H511.75V251.188C511.75 251.354 511.698 251.5 511.594 251.625C511.51 251.75 511.365 251.854 511.156 251.938C510.969 252 510.698 252.052 510.344 252.094C510.01 252.156 509.583 252.188 509.062 252.188C508.542 252.188 508.104 252.156 507.75 252.094C507.417 252.052 507.146 252 506.938 251.938C506.729 251.854 506.583 251.75 506.5 251.625C506.417 251.5 506.375 251.354 506.375 251.188V213.875C506.375 213.042 506.594 212.448 507.031 212.094C507.469 211.74 507.958 211.562 508.5 211.562H517.156C518.031 211.562 518.865 211.604 519.656 211.688C520.469 211.75 521.417 211.906 522.5 212.156C523.604 212.385 524.719 212.833 525.844 213.5C526.99 214.146 527.958 214.948 528.75 215.906C529.542 216.865 530.146 217.979 530.562 219.25C531 220.5 531.219 221.885 531.219 223.406ZM525.562 223.844C525.562 222.198 525.25 220.823 524.625 219.719C524.021 218.615 523.26 217.792 522.344 217.25C521.448 216.708 520.51 216.365 519.531 216.219C518.573 216.073 517.635 216 516.719 216H511.75V232.219H516.594C518.219 232.219 519.562 232.01 520.625 231.594C521.708 231.177 522.615 230.604 523.344 229.875C524.073 229.125 524.625 228.24 525 227.219C525.375 226.177 525.562 225.052 525.562 223.844ZM544 251.219C544 251.385 543.958 251.531 543.875 251.656C543.792 251.76 543.656 251.854 543.469 251.938C543.281 252.021 543.021 252.083 542.688 252.125C542.354 252.167 541.927 252.188 541.406 252.188C540.906 252.188 540.49 252.167 540.156 252.125C539.823 252.083 539.552 252.021 539.344 251.938C539.156 251.854 539.021 251.76 538.938 251.656C538.875 251.531 538.844 251.385 538.844 251.219V209.469C538.844 209.302 538.875 209.156 538.938 209.031C539.021 208.906 539.156 208.802 539.344 208.719C539.552 208.635 539.823 208.573 540.156 208.531C540.49 208.49 540.906 208.469 541.406 208.469C541.927 208.469 542.354 208.49 542.688 208.531C543.021 208.573 543.281 208.635 543.469 208.719C543.656 208.802 543.792 208.906 543.875 209.031C543.958 209.156 544 209.302 544 209.469V251.219ZM574.719 251.25C574.719 251.5 574.635 251.688 574.469 251.812C574.302 251.938 574.073 252.031 573.781 252.094C573.49 252.156 573.062 252.188 572.5 252.188C571.958 252.188 571.521 252.156 571.188 252.094C570.875 252.031 570.646 251.938 570.5 251.812C570.354 251.688 570.281 251.5 570.281 251.25V248.438C569.052 249.75 567.677 250.771 566.156 251.5C564.656 252.229 563.062 252.594 561.375 252.594C559.896 252.594 558.552 252.396 557.344 252C556.156 251.625 555.135 251.073 554.281 250.344C553.448 249.615 552.792 248.719 552.312 247.656C551.854 246.594 551.625 245.385 551.625 244.031C551.625 242.448 551.948 241.073 552.594 239.906C553.24 238.74 554.167 237.771 555.375 237C556.583 236.229 558.062 235.656 559.812 235.281C561.562 234.885 563.531 234.688 565.719 234.688H569.594V232.5C569.594 231.417 569.479 230.458 569.25 229.625C569.021 228.792 568.646 228.104 568.125 227.562C567.625 227 566.969 226.583 566.156 226.312C565.344 226.021 564.344 225.875 563.156 225.875C561.885 225.875 560.74 226.031 559.719 226.344C558.719 226.635 557.833 226.969 557.062 227.344C556.312 227.698 555.677 228.031 555.156 228.344C554.656 228.635 554.281 228.781 554.031 228.781C553.865 228.781 553.719 228.74 553.594 228.656C553.469 228.573 553.354 228.448 553.25 228.281C553.167 228.115 553.104 227.906 553.062 227.656C553.021 227.385 553 227.094 553 226.781C553 226.26 553.031 225.854 553.094 225.562C553.177 225.25 553.354 224.958 553.625 224.688C553.917 224.417 554.406 224.104 555.094 223.75C555.781 223.375 556.573 223.042 557.469 222.75C558.365 222.438 559.344 222.188 560.406 222C561.469 221.792 562.542 221.688 563.625 221.688C565.646 221.688 567.365 221.917 568.781 222.375C570.198 222.833 571.344 223.51 572.219 224.406C573.094 225.281 573.729 226.375 574.125 227.688C574.521 229 574.719 230.531 574.719 232.281V251.25ZM569.594 238.406H565.188C563.771 238.406 562.542 238.531 561.5 238.781C560.458 239.01 559.594 239.365 558.906 239.844C558.219 240.302 557.708 240.865 557.375 241.531C557.062 242.177 556.906 242.927 556.906 243.781C556.906 245.24 557.365 246.406 558.281 247.281C559.219 248.135 560.521 248.562 562.188 248.562C563.542 248.562 564.792 248.219 565.938 247.531C567.104 246.844 568.323 245.792 569.594 244.375V238.406ZM598.219 249.156C598.219 249.76 598.177 250.24 598.094 250.594C598.01 250.948 597.885 251.208 597.719 251.375C597.552 251.542 597.302 251.698 596.969 251.844C596.635 251.99 596.25 252.104 595.812 252.188C595.396 252.292 594.948 252.375 594.469 252.438C593.99 252.5 593.51 252.531 593.031 252.531C591.573 252.531 590.323 252.344 589.281 251.969C588.24 251.573 587.385 250.99 586.719 250.219C586.052 249.427 585.562 248.438 585.25 247.25C584.958 246.042 584.812 244.625 584.812 243V226.562H580.875C580.562 226.562 580.312 226.396 580.125 226.062C579.938 225.729 579.844 225.188 579.844 224.438C579.844 224.042 579.865 223.708 579.906 223.438C579.969 223.167 580.042 222.948 580.125 222.781C580.208 222.594 580.312 222.469 580.438 222.406C580.583 222.323 580.74 222.281 580.906 222.281H584.812V215.594C584.812 215.448 584.844 215.312 584.906 215.188C584.99 215.062 585.125 214.958 585.312 214.875C585.521 214.771 585.792 214.698 586.125 214.656C586.458 214.615 586.875 214.594 587.375 214.594C587.896 214.594 588.323 214.615 588.656 214.656C588.99 214.698 589.25 214.771 589.438 214.875C589.625 214.958 589.76 215.062 589.844 215.188C589.927 215.312 589.969 215.448 589.969 215.594V222.281H597.188C597.354 222.281 597.5 222.323 597.625 222.406C597.75 222.469 597.854 222.594 597.938 222.781C598.042 222.948 598.115 223.167 598.156 223.438C598.198 223.708 598.219 224.042 598.219 224.438C598.219 225.188 598.125 225.729 597.938 226.062C597.75 226.396 597.5 226.562 597.188 226.562H589.969V242.25C589.969 244.188 590.25 245.656 590.812 246.656C591.396 247.635 592.427 248.125 593.906 248.125C594.385 248.125 594.812 248.083 595.188 248C595.562 247.896 595.896 247.792 596.188 247.688C596.479 247.583 596.729 247.49 596.938 247.406C597.146 247.302 597.333 247.25 597.5 247.25C597.604 247.25 597.698 247.281 597.781 247.344C597.885 247.385 597.958 247.479 598 247.625C598.062 247.771 598.115 247.969 598.156 248.219C598.198 248.469 598.219 248.781 598.219 249.156ZM625.406 251.25C625.406 251.5 625.323 251.688 625.156 251.812C624.99 251.938 624.76 252.031 624.469 252.094C624.177 252.156 623.75 252.188 623.188 252.188C622.646 252.188 622.208 252.156 621.875 252.094C621.562 252.031 621.333 251.938 621.188 251.812C621.042 251.688 620.969 251.5 620.969 251.25V248.438C619.74 249.75 618.365 250.771 616.844 251.5C615.344 252.229 613.75 252.594 612.062 252.594C610.583 252.594 609.24 252.396 608.031 252C606.844 251.625 605.823 251.073 604.969 250.344C604.135 249.615 603.479 248.719 603 247.656C602.542 246.594 602.312 245.385 602.312 244.031C602.312 242.448 602.635 241.073 603.281 239.906C603.927 238.74 604.854 237.771 606.062 237C607.271 236.229 608.75 235.656 610.5 235.281C612.25 234.885 614.219 234.688 616.406 234.688H620.281V232.5C620.281 231.417 620.167 230.458 619.938 229.625C619.708 228.792 619.333 228.104 618.812 227.562C618.312 227 617.656 226.583 616.844 226.312C616.031 226.021 615.031 225.875 613.844 225.875C612.573 225.875 611.427 226.031 610.406 226.344C609.406 226.635 608.521 226.969 607.75 227.344C607 227.698 606.365 228.031 605.844 228.344C605.344 228.635 604.969 228.781 604.719 228.781C604.552 228.781 604.406 228.74 604.281 228.656C604.156 228.573 604.042 228.448 603.938 228.281C603.854 228.115 603.792 227.906 603.75 227.656C603.708 227.385 603.688 227.094 603.688 226.781C603.688 226.26 603.719 225.854 603.781 225.562C603.865 225.25 604.042 224.958 604.312 224.688C604.604 224.417 605.094 224.104 605.781 223.75C606.469 223.375 607.26 223.042 608.156 222.75C609.052 222.438 610.031 222.188 611.094 222C612.156 221.792 613.229 221.688 614.312 221.688C616.333 221.688 618.052 221.917 619.469 222.375C620.885 222.833 622.031 223.51 622.906 224.406C623.781 225.281 624.417 226.375 624.812 227.688C625.208 229 625.406 230.531 625.406 232.281V251.25ZM620.281 238.406H615.875C614.458 238.406 613.229 238.531 612.188 238.781C611.146 239.01 610.281 239.365 609.594 239.844C608.906 240.302 608.396 240.865 608.062 241.531C607.75 242.177 607.594 242.927 607.594 243.781C607.594 245.24 608.052 246.406 608.969 247.281C609.906 248.135 611.208 248.562 612.875 248.562C614.229 248.562 615.479 248.219 616.625 247.531C617.792 246.844 619.01 245.792 620.281 244.375V238.406ZM649.938 211.531C649.938 211.927 649.917 212.25 649.875 212.5C649.833 212.729 649.781 212.917 649.719 213.062C649.677 213.208 649.615 213.312 649.531 213.375C649.448 213.417 649.344 213.438 649.219 213.438C649.073 213.438 648.885 213.396 648.656 213.312C648.448 213.208 648.188 213.104 647.875 213C647.562 212.875 647.188 212.771 646.75 212.688C646.333 212.583 645.844 212.531 645.281 212.531C644.51 212.531 643.854 212.656 643.312 212.906C642.771 213.156 642.333 213.552 642 214.094C641.667 214.615 641.427 215.302 641.281 216.156C641.135 216.99 641.062 218.01 641.062 219.219V222.281H647.344C647.51 222.281 647.646 222.323 647.75 222.406C647.875 222.469 647.979 222.594 648.062 222.781C648.167 222.948 648.24 223.167 648.281 223.438C648.344 223.708 648.375 224.042 648.375 224.438C648.375 225.188 648.281 225.729 648.094 226.062C647.906 226.396 647.656 226.562 647.344 226.562H641.062V251.219C641.062 251.385 641.021 251.531 640.938 251.656C640.854 251.76 640.708 251.854 640.5 251.938C640.312 252.021 640.052 252.083 639.719 252.125C639.385 252.167 638.969 252.188 638.469 252.188C637.969 252.188 637.552 252.167 637.219 252.125C636.885 252.083 636.615 252.021 636.406 251.938C636.219 251.854 636.083 251.76 636 251.656C635.917 251.531 635.875 251.385 635.875 251.219V226.562H631.906C631.573 226.562 631.323 226.396 631.156 226.062C630.99 225.729 630.906 225.188 630.906 224.438C630.906 224.042 630.927 223.708 630.969 223.438C631.01 223.167 631.073 222.948 631.156 222.781C631.24 222.594 631.344 222.469 631.469 222.406C631.594 222.323 631.74 222.281 631.906 222.281H635.875V219.375C635.875 217.417 636.052 215.74 636.406 214.344C636.781 212.927 637.344 211.771 638.094 210.875C638.844 209.979 639.781 209.323 640.906 208.906C642.052 208.469 643.396 208.25 644.938 208.25C645.667 208.25 646.375 208.323 647.062 208.469C647.75 208.594 648.281 208.74 648.656 208.906C649.031 209.052 649.281 209.188 649.406 209.312C649.531 209.438 649.635 209.604 649.719 209.812C649.802 210 649.854 210.24 649.875 210.531C649.917 210.802 649.938 211.135 649.938 211.531ZM678.875 236.844C678.875 239.135 678.573 241.25 677.969 243.188C677.365 245.104 676.458 246.76 675.25 248.156C674.062 249.552 672.562 250.646 670.75 251.438C668.958 252.208 666.875 252.594 664.5 252.594C662.188 252.594 660.167 252.25 658.438 251.562C656.729 250.875 655.302 249.875 654.156 248.562C653.01 247.25 652.156 245.656 651.594 243.781C651.031 241.906 650.75 239.781 650.75 237.406C650.75 235.115 651.042 233.01 651.625 231.094C652.229 229.156 653.125 227.49 654.312 226.094C655.521 224.698 657.021 223.615 658.812 222.844C660.604 222.073 662.698 221.688 665.094 221.688C667.406 221.688 669.417 222.031 671.125 222.719C672.854 223.406 674.292 224.406 675.438 225.719C676.583 227.031 677.438 228.625 678 230.5C678.583 232.375 678.875 234.49 678.875 236.844ZM673.438 237.188C673.438 235.667 673.292 234.229 673 232.875C672.729 231.521 672.271 230.333 671.625 229.312C670.979 228.292 670.104 227.49 669 226.906C667.896 226.302 666.521 226 664.875 226C663.354 226 662.042 226.271 660.938 226.812C659.854 227.354 658.958 228.125 658.25 229.125C657.542 230.104 657.01 231.271 656.656 232.625C656.323 233.979 656.156 235.458 656.156 237.062C656.156 238.604 656.292 240.052 656.562 241.406C656.854 242.76 657.323 243.948 657.969 244.969C658.635 245.969 659.521 246.771 660.625 247.375C661.729 247.958 663.104 248.25 664.75 248.25C666.25 248.25 667.552 247.979 668.656 247.438C669.76 246.896 670.667 246.135 671.375 245.156C672.083 244.177 672.604 243.01 672.938 241.656C673.271 240.302 673.438 238.812 673.438 237.188ZM702.906 224.938C702.906 225.396 702.896 225.781 702.875 226.094C702.854 226.406 702.812 226.656 702.75 226.844C702.688 227.01 702.604 227.146 702.5 227.25C702.417 227.333 702.292 227.375 702.125 227.375C701.958 227.375 701.75 227.333 701.5 227.25C701.271 227.146 701 227.052 700.688 226.969C700.396 226.865 700.062 226.771 699.688 226.688C699.312 226.604 698.906 226.562 698.469 226.562C697.948 226.562 697.438 226.667 696.938 226.875C696.438 227.083 695.906 227.427 695.344 227.906C694.802 228.385 694.229 229.021 693.625 229.812C693.021 230.604 692.354 231.573 691.625 232.719V251.219C691.625 251.385 691.583 251.531 691.5 251.656C691.417 251.76 691.281 251.854 691.094 251.938C690.906 252.021 690.646 252.083 690.312 252.125C689.979 252.167 689.552 252.188 689.031 252.188C688.531 252.188 688.115 252.167 687.781 252.125C687.448 252.083 687.177 252.021 686.969 251.938C686.781 251.854 686.646 251.76 686.562 251.656C686.5 251.531 686.469 251.385 686.469 251.219V223.094C686.469 222.927 686.5 222.792 686.562 222.688C686.625 222.562 686.75 222.458 686.938 222.375C687.125 222.271 687.365 222.208 687.656 222.188C687.948 222.146 688.333 222.125 688.812 222.125C689.271 222.125 689.646 222.146 689.938 222.188C690.25 222.208 690.49 222.271 690.656 222.375C690.823 222.458 690.938 222.562 691 222.688C691.083 222.792 691.125 222.927 691.125 223.094V227.188C691.896 226.062 692.615 225.146 693.281 224.438C693.969 223.729 694.615 223.177 695.219 222.781C695.823 222.365 696.417 222.083 697 221.938C697.604 221.771 698.208 221.688 698.812 221.688C699.083 221.688 699.385 221.708 699.719 221.75C700.073 221.771 700.438 221.823 700.812 221.906C701.188 221.99 701.521 222.083 701.812 222.188C702.125 222.292 702.344 222.396 702.469 222.5C702.594 222.604 702.677 222.708 702.719 222.812C702.76 222.896 702.792 223.01 702.812 223.156C702.854 223.302 702.875 223.521 702.875 223.812C702.896 224.083 702.906 224.458 702.906 224.938ZM750.5 251.219C750.5 251.385 750.458 251.531 750.375 251.656C750.292 251.76 750.156 251.854 749.969 251.938C749.781 252.021 749.521 252.083 749.188 252.125C748.854 252.167 748.438 252.188 747.938 252.188C747.417 252.188 746.99 252.167 746.656 252.125C746.323 252.083 746.052 252.021 745.844 251.938C745.656 251.854 745.521 251.76 745.438 251.656C745.354 251.531 745.312 251.385 745.312 251.219V234.125C745.312 232.938 745.208 231.854 745 230.875C744.792 229.896 744.458 229.052 744 228.344C743.542 227.635 742.958 227.094 742.25 226.719C741.542 226.344 740.708 226.156 739.75 226.156C738.562 226.156 737.365 226.615 736.156 227.531C734.969 228.448 733.656 229.792 732.219 231.562V251.219C732.219 251.385 732.177 251.531 732.094 251.656C732.01 251.76 731.865 251.854 731.656 251.938C731.469 252.021 731.208 252.083 730.875 252.125C730.542 252.167 730.125 252.188 729.625 252.188C729.146 252.188 728.729 252.167 728.375 252.125C728.042 252.083 727.771 252.021 727.562 251.938C727.375 251.854 727.24 251.76 727.156 251.656C727.094 251.531 727.062 251.385 727.062 251.219V234.125C727.062 232.938 726.948 231.854 726.719 230.875C726.49 229.896 726.146 229.052 725.688 228.344C725.229 227.635 724.646 227.094 723.938 226.719C723.25 226.344 722.427 226.156 721.469 226.156C720.281 226.156 719.083 226.615 717.875 227.531C716.667 228.448 715.354 229.792 713.938 231.562V251.219C713.938 251.385 713.896 251.531 713.812 251.656C713.729 251.76 713.594 251.854 713.406 251.938C713.219 252.021 712.958 252.083 712.625 252.125C712.292 252.167 711.865 252.188 711.344 252.188C710.844 252.188 710.427 252.167 710.094 252.125C709.76 252.083 709.49 252.021 709.281 251.938C709.094 251.854 708.958 251.76 708.875 251.656C708.812 251.531 708.781 251.385 708.781 251.219V223.094C708.781 222.927 708.812 222.792 708.875 222.688C708.938 222.562 709.062 222.458 709.25 222.375C709.438 222.271 709.677 222.208 709.969 222.188C710.26 222.146 710.646 222.125 711.125 222.125C711.583 222.125 711.958 222.146 712.25 222.188C712.562 222.208 712.802 222.271 712.969 222.375C713.135 222.458 713.25 222.562 713.312 222.688C713.396 222.792 713.438 222.927 713.438 223.094V226.812C715.021 225.042 716.552 223.75 718.031 222.938C719.531 222.104 721.042 221.688 722.562 221.688C723.729 221.688 724.771 221.823 725.688 222.094C726.625 222.365 727.448 222.75 728.156 223.25C728.865 223.729 729.469 224.312 729.969 225C730.469 225.667 730.885 226.417 731.219 227.25C732.156 226.229 733.042 225.365 733.875 224.656C734.729 223.948 735.542 223.375 736.312 222.938C737.104 222.5 737.865 222.188 738.594 222C739.344 221.792 740.094 221.688 740.844 221.688C742.656 221.688 744.177 222.01 745.406 222.656C746.635 223.281 747.625 224.125 748.375 225.188C749.146 226.25 749.688 227.5 750 228.938C750.333 230.354 750.5 231.854 750.5 233.438V251.219ZM781.094 251.25C781.094 251.5 781.01 251.688 780.844 251.812C780.677 251.938 780.448 252.031 780.156 252.094C779.865 252.156 779.438 252.188 778.875 252.188C778.333 252.188 777.896 252.156 777.562 252.094C777.25 252.031 777.021 251.938 776.875 251.812C776.729 251.688 776.656 251.5 776.656 251.25V248.438C775.427 249.75 774.052 250.771 772.531 251.5C771.031 252.229 769.438 252.594 767.75 252.594C766.271 252.594 764.927 252.396 763.719 252C762.531 251.625 761.51 251.073 760.656 250.344C759.823 249.615 759.167 248.719 758.688 247.656C758.229 246.594 758 245.385 758 244.031C758 242.448 758.323 241.073 758.969 239.906C759.615 238.74 760.542 237.771 761.75 237C762.958 236.229 764.438 235.656 766.188 235.281C767.938 234.885 769.906 234.688 772.094 234.688H775.969V232.5C775.969 231.417 775.854 230.458 775.625 229.625C775.396 228.792 775.021 228.104 774.5 227.562C774 227 773.344 226.583 772.531 226.312C771.719 226.021 770.719 225.875 769.531 225.875C768.26 225.875 767.115 226.031 766.094 226.344C765.094 226.635 764.208 226.969 763.438 227.344C762.688 227.698 762.052 228.031 761.531 228.344C761.031 228.635 760.656 228.781 760.406 228.781C760.24 228.781 760.094 228.74 759.969 228.656C759.844 228.573 759.729 228.448 759.625 228.281C759.542 228.115 759.479 227.906 759.438 227.656C759.396 227.385 759.375 227.094 759.375 226.781C759.375 226.26 759.406 225.854 759.469 225.562C759.552 225.25 759.729 224.958 760 224.688C760.292 224.417 760.781 224.104 761.469 223.75C762.156 223.375 762.948 223.042 763.844 222.75C764.74 222.438 765.719 222.188 766.781 222C767.844 221.792 768.917 221.688 770 221.688C772.021 221.688 773.74 221.917 775.156 222.375C776.573 222.833 777.719 223.51 778.594 224.406C779.469 225.281 780.104 226.375 780.5 227.688C780.896 229 781.094 230.531 781.094 232.281V251.25ZM775.969 238.406H771.562C770.146 238.406 768.917 238.531 767.875 238.781C766.833 239.01 765.969 239.365 765.281 239.844C764.594 240.302 764.083 240.865 763.75 241.531C763.438 242.177 763.281 242.927 763.281 243.781C763.281 245.24 763.74 246.406 764.656 247.281C765.594 248.135 766.896 248.562 768.562 248.562C769.917 248.562 771.167 248.219 772.312 247.531C773.479 246.844 774.698 245.792 775.969 244.375V238.406ZM808.25 243.562C808.25 245 807.979 246.281 807.438 247.406C806.917 248.531 806.167 249.479 805.188 250.25C804.208 251.021 803.042 251.604 801.688 252C800.333 252.396 798.844 252.594 797.219 252.594C796.219 252.594 795.26 252.51 794.344 252.344C793.448 252.198 792.635 252.01 791.906 251.781C791.198 251.531 790.594 251.281 790.094 251.031C789.594 250.76 789.229 250.521 789 250.312C788.771 250.104 788.604 249.812 788.5 249.438C788.396 249.062 788.344 248.552 788.344 247.906C788.344 247.51 788.365 247.177 788.406 246.906C788.448 246.635 788.5 246.417 788.562 246.25C788.625 246.083 788.708 245.969 788.812 245.906C788.938 245.823 789.073 245.781 789.219 245.781C789.448 245.781 789.781 245.927 790.219 246.219C790.677 246.49 791.229 246.792 791.875 247.125C792.542 247.458 793.323 247.771 794.219 248.062C795.115 248.333 796.146 248.469 797.312 248.469C798.188 248.469 798.979 248.375 799.688 248.188C800.396 248 801.01 247.729 801.531 247.375C802.052 247 802.448 246.531 802.719 245.969C803.01 245.406 803.156 244.74 803.156 243.969C803.156 243.177 802.948 242.51 802.531 241.969C802.135 241.427 801.604 240.948 800.938 240.531C800.271 240.115 799.521 239.75 798.688 239.438C797.854 239.104 796.99 238.76 796.094 238.406C795.219 238.052 794.354 237.656 793.5 237.219C792.667 236.76 791.917 236.208 791.25 235.562C790.583 234.917 790.042 234.146 789.625 233.25C789.229 232.354 789.031 231.281 789.031 230.031C789.031 228.927 789.24 227.875 789.656 226.875C790.094 225.854 790.74 224.969 791.594 224.219C792.448 223.448 793.51 222.833 794.781 222.375C796.073 221.917 797.573 221.688 799.281 221.688C800.031 221.688 800.781 221.75 801.531 221.875C802.281 222 802.958 222.156 803.562 222.344C804.167 222.531 804.677 222.74 805.094 222.969C805.531 223.177 805.854 223.365 806.062 223.531C806.292 223.698 806.438 223.844 806.5 223.969C806.583 224.094 806.635 224.24 806.656 224.406C806.698 224.552 806.729 224.74 806.75 224.969C806.792 225.198 806.812 225.479 806.812 225.812C806.812 226.167 806.792 226.479 806.75 226.75C806.729 227 806.677 227.208 806.594 227.375C806.531 227.542 806.448 227.667 806.344 227.75C806.24 227.812 806.125 227.844 806 227.844C805.812 227.844 805.542 227.729 805.188 227.5C804.833 227.271 804.375 227.031 803.812 226.781C803.25 226.51 802.583 226.26 801.812 226.031C801.062 225.802 800.198 225.688 799.219 225.688C798.344 225.688 797.573 225.792 796.906 226C796.24 226.188 795.688 226.469 795.25 226.844C794.833 227.198 794.51 227.625 794.281 228.125C794.073 228.625 793.969 229.167 793.969 229.75C793.969 230.562 794.177 231.25 794.594 231.812C795.01 232.354 795.552 232.833 796.219 233.25C796.885 233.667 797.646 234.042 798.5 234.375C799.354 234.708 800.219 235.052 801.094 235.406C801.99 235.76 802.865 236.156 803.719 236.594C804.594 237.031 805.365 237.562 806.031 238.188C806.698 238.812 807.229 239.562 807.625 240.438C808.042 241.312 808.25 242.354 808.25 243.562Z" fill="black"/>
<path d="M920.375 860.281C920.375 860.615 920.365 860.906 920.344 861.156C920.323 861.406 920.281 861.625 920.219 861.812C920.177 862 920.115 862.167 920.031 862.312C919.948 862.458 919.802 862.635 919.594 862.844C919.385 863.052 918.948 863.375 918.281 863.812C917.615 864.229 916.781 864.646 915.781 865.062C914.802 865.458 913.667 865.792 912.375 866.062C911.104 866.354 909.708 866.5 908.188 866.5C905.562 866.5 903.188 866.062 901.062 865.188C898.958 864.312 897.156 863.021 895.656 861.312C894.177 859.604 893.031 857.5 892.219 855C891.427 852.479 891.031 849.583 891.031 846.312C891.031 842.958 891.458 839.969 892.312 837.344C893.188 834.719 894.406 832.5 895.969 830.688C897.531 828.854 899.396 827.458 901.562 826.5C903.75 825.542 906.167 825.062 908.812 825.062C909.979 825.062 911.115 825.177 912.219 825.406C913.323 825.615 914.344 825.885 915.281 826.219C916.219 826.552 917.052 826.938 917.781 827.375C918.51 827.812 919.01 828.177 919.281 828.469C919.573 828.74 919.76 828.948 919.844 829.094C919.927 829.24 919.99 829.417 920.031 829.625C920.094 829.812 920.135 830.042 920.156 830.312C920.198 830.583 920.219 830.906 920.219 831.281C920.219 831.698 920.198 832.052 920.156 832.344C920.115 832.635 920.052 832.885 919.969 833.094C919.885 833.281 919.781 833.427 919.656 833.531C919.552 833.615 919.417 833.656 919.25 833.656C918.958 833.656 918.552 833.458 918.031 833.062C917.51 832.646 916.833 832.198 916 831.719C915.188 831.219 914.188 830.771 913 830.375C911.833 829.958 910.427 829.75 908.781 829.75C906.99 829.75 905.354 830.115 903.875 830.844C902.417 831.552 901.167 832.604 900.125 834C899.083 835.396 898.271 837.104 897.688 839.125C897.125 841.125 896.844 843.417 896.844 846C896.844 848.562 897.115 850.833 897.656 852.812C898.219 854.771 899.01 856.417 900.031 857.75C901.073 859.062 902.344 860.062 903.844 860.75C905.344 861.417 907.042 861.75 908.938 861.75C910.542 861.75 911.938 861.552 913.125 861.156C914.333 860.76 915.354 860.323 916.188 859.844C917.042 859.344 917.74 858.896 918.281 858.5C918.823 858.104 919.25 857.906 919.562 857.906C919.708 857.906 919.833 857.938 919.938 858C920.042 858.062 920.125 858.188 920.188 858.375C920.25 858.542 920.292 858.781 920.312 859.094C920.354 859.406 920.375 859.802 920.375 860.281ZM948.094 865.25C948.094 865.5 948.01 865.688 947.844 865.812C947.677 865.938 947.448 866.031 947.156 866.094C946.865 866.156 946.438 866.188 945.875 866.188C945.333 866.188 944.896 866.156 944.562 866.094C944.25 866.031 944.021 865.938 943.875 865.812C943.729 865.688 943.656 865.5 943.656 865.25V862.438C942.427 863.75 941.052 864.771 939.531 865.5C938.031 866.229 936.438 866.594 934.75 866.594C933.271 866.594 931.927 866.396 930.719 866C929.531 865.625 928.51 865.073 927.656 864.344C926.823 863.615 926.167 862.719 925.688 861.656C925.229 860.594 925 859.385 925 858.031C925 856.448 925.323 855.073 925.969 853.906C926.615 852.74 927.542 851.771 928.75 851C929.958 850.229 931.438 849.656 933.188 849.281C934.938 848.885 936.906 848.688 939.094 848.688H942.969V846.5C942.969 845.417 942.854 844.458 942.625 843.625C942.396 842.792 942.021 842.104 941.5 841.562C941 841 940.344 840.583 939.531 840.312C938.719 840.021 937.719 839.875 936.531 839.875C935.26 839.875 934.115 840.031 933.094 840.344C932.094 840.635 931.208 840.969 930.438 841.344C929.688 841.698 929.052 842.031 928.531 842.344C928.031 842.635 927.656 842.781 927.406 842.781C927.24 842.781 927.094 842.74 926.969 842.656C926.844 842.573 926.729 842.448 926.625 842.281C926.542 842.115 926.479 841.906 926.438 841.656C926.396 841.385 926.375 841.094 926.375 840.781C926.375 840.26 926.406 839.854 926.469 839.562C926.552 839.25 926.729 838.958 927 838.688C927.292 838.417 927.781 838.104 928.469 837.75C929.156 837.375 929.948 837.042 930.844 836.75C931.74 836.438 932.719 836.188 933.781 836C934.844 835.792 935.917 835.688 937 835.688C939.021 835.688 940.74 835.917 942.156 836.375C943.573 836.833 944.719 837.51 945.594 838.406C946.469 839.281 947.104 840.375 947.5 841.688C947.896 843 948.094 844.531 948.094 846.281V865.25ZM942.969 852.406H938.562C937.146 852.406 935.917 852.531 934.875 852.781C933.833 853.01 932.969 853.365 932.281 853.844C931.594 854.302 931.083 854.865 930.75 855.531C930.438 856.177 930.281 856.927 930.281 857.781C930.281 859.24 930.74 860.406 931.656 861.281C932.594 862.135 933.896 862.562 935.562 862.562C936.917 862.562 938.167 862.219 939.312 861.531C940.479 860.844 941.698 859.792 942.969 858.375V852.406ZM981.812 865.219C981.812 865.385 981.771 865.531 981.688 865.656C981.604 865.76 981.469 865.854 981.281 865.938C981.094 866.021 980.833 866.083 980.5 866.125C980.167 866.167 979.75 866.188 979.25 866.188C978.729 866.188 978.302 866.167 977.969 866.125C977.635 866.083 977.375 866.021 977.188 865.938C977 865.854 976.865 865.76 976.781 865.656C976.698 865.531 976.656 865.385 976.656 865.219V848.75C976.656 847.146 976.531 845.854 976.281 844.875C976.031 843.896 975.667 843.052 975.188 842.344C974.708 841.635 974.083 841.094 973.312 840.719C972.562 840.344 971.688 840.156 970.688 840.156C969.396 840.156 968.104 840.615 966.812 841.531C965.521 842.448 964.167 843.792 962.75 845.562V865.219C962.75 865.385 962.708 865.531 962.625 865.656C962.542 865.76 962.406 865.854 962.219 865.938C962.031 866.021 961.771 866.083 961.438 866.125C961.104 866.167 960.677 866.188 960.156 866.188C959.656 866.188 959.24 866.167 958.906 866.125C958.573 866.083 958.302 866.021 958.094 865.938C957.906 865.854 957.771 865.76 957.688 865.656C957.625 865.531 957.594 865.385 957.594 865.219V837.094C957.594 836.927 957.625 836.792 957.688 836.688C957.75 836.562 957.875 836.458 958.062 836.375C958.25 836.271 958.49 836.208 958.781 836.188C959.073 836.146 959.458 836.125 959.938 836.125C960.396 836.125 960.771 836.146 961.062 836.188C961.375 836.208 961.615 836.271 961.781 836.375C961.948 836.458 962.062 836.562 962.125 836.688C962.208 836.792 962.25 836.927 962.25 837.094V840.812C963.833 839.042 965.406 837.75 966.969 836.938C968.552 836.104 970.146 835.688 971.75 835.688C973.625 835.688 975.198 836.01 976.469 836.656C977.76 837.281 978.802 838.125 979.594 839.188C980.385 840.25 980.948 841.5 981.281 842.938C981.635 844.354 981.812 846.062 981.812 848.062V865.219ZM1012.41 865.25C1012.41 865.5 1012.32 865.688 1012.16 865.812C1011.99 865.938 1011.76 866.031 1011.47 866.094C1011.18 866.156 1010.75 866.188 1010.19 866.188C1009.65 866.188 1009.21 866.156 1008.88 866.094C1008.56 866.031 1008.33 865.938 1008.19 865.812C1008.04 865.688 1007.97 865.5 1007.97 865.25V862.438C1006.74 863.75 1005.36 864.771 1003.84 865.5C1002.34 866.229 1000.75 866.594 999.062 866.594C997.583 866.594 996.24 866.396 995.031 866C993.844 865.625 992.823 865.073 991.969 864.344C991.135 863.615 990.479 862.719 990 861.656C989.542 860.594 989.312 859.385 989.312 858.031C989.312 856.448 989.635 855.073 990.281 853.906C990.927 852.74 991.854 851.771 993.062 851C994.271 850.229 995.75 849.656 997.5 849.281C999.25 848.885 1001.22 848.688 1003.41 848.688H1007.28V846.5C1007.28 845.417 1007.17 844.458 1006.94 843.625C1006.71 842.792 1006.33 842.104 1005.81 841.562C1005.31 841 1004.66 840.583 1003.84 840.312C1003.03 840.021 1002.03 839.875 1000.84 839.875C999.573 839.875 998.427 840.031 997.406 840.344C996.406 840.635 995.521 840.969 994.75 841.344C994 841.698 993.365 842.031 992.844 842.344C992.344 842.635 991.969 842.781 991.719 842.781C991.552 842.781 991.406 842.74 991.281 842.656C991.156 842.573 991.042 842.448 990.938 842.281C990.854 842.115 990.792 841.906 990.75 841.656C990.708 841.385 990.688 841.094 990.688 840.781C990.688 840.26 990.719 839.854 990.781 839.562C990.865 839.25 991.042 838.958 991.312 838.688C991.604 838.417 992.094 838.104 992.781 837.75C993.469 837.375 994.26 837.042 995.156 836.75C996.052 836.438 997.031 836.188 998.094 836C999.156 835.792 1000.23 835.688 1001.31 835.688C1003.33 835.688 1005.05 835.917 1006.47 836.375C1007.89 836.833 1009.03 837.51 1009.91 838.406C1010.78 839.281 1011.42 840.375 1011.81 841.688C1012.21 843 1012.41 844.531 1012.41 846.281V865.25ZM1007.28 852.406H1002.88C1001.46 852.406 1000.23 852.531 999.188 852.781C998.146 853.01 997.281 853.365 996.594 853.844C995.906 854.302 995.396 854.865 995.062 855.531C994.75 856.177 994.594 856.927 994.594 857.781C994.594 859.24 995.052 860.406 995.969 861.281C996.906 862.135 998.208 862.562 999.875 862.562C1001.23 862.562 1002.48 862.219 1003.62 861.531C1004.79 860.844 1006.01 859.792 1007.28 858.375V852.406ZM1027.06 865.219C1027.06 865.385 1027.02 865.531 1026.94 865.656C1026.85 865.76 1026.72 865.854 1026.53 865.938C1026.34 866.021 1026.08 866.083 1025.75 866.125C1025.42 866.167 1024.99 866.188 1024.47 866.188C1023.97 866.188 1023.55 866.167 1023.22 866.125C1022.89 866.083 1022.61 866.021 1022.41 865.938C1022.22 865.854 1022.08 865.76 1022 865.656C1021.94 865.531 1021.91 865.385 1021.91 865.219V823.469C1021.91 823.302 1021.94 823.156 1022 823.031C1022.08 822.906 1022.22 822.802 1022.41 822.719C1022.61 822.635 1022.89 822.573 1023.22 822.531C1023.55 822.49 1023.97 822.469 1024.47 822.469C1024.99 822.469 1025.42 822.49 1025.75 822.531C1026.08 822.573 1026.34 822.635 1026.53 822.719C1026.72 822.802 1026.85 822.906 1026.94 823.031C1027.02 823.156 1027.06 823.302 1027.06 823.469V865.219Z" fill="black"/>
<path d="M1221.38 245.281C1221.38 245.615 1221.36 245.906 1221.34 246.156C1221.32 246.406 1221.28 246.625 1221.22 246.812C1221.18 247 1221.11 247.167 1221.03 247.312C1220.95 247.458 1220.8 247.635 1220.59 247.844C1220.39 248.052 1219.95 248.375 1219.28 248.812C1218.61 249.229 1217.78 249.646 1216.78 250.062C1215.8 250.458 1214.67 250.792 1213.38 251.062C1212.1 251.354 1210.71 251.5 1209.19 251.5C1206.56 251.5 1204.19 251.062 1202.06 250.188C1199.96 249.312 1198.16 248.021 1196.66 246.312C1195.18 244.604 1194.03 242.5 1193.22 240C1192.43 237.479 1192.03 234.583 1192.03 231.312C1192.03 227.958 1192.46 224.969 1193.31 222.344C1194.19 219.719 1195.41 217.5 1196.97 215.688C1198.53 213.854 1200.4 212.458 1202.56 211.5C1204.75 210.542 1207.17 210.062 1209.81 210.062C1210.98 210.062 1212.11 210.177 1213.22 210.406C1214.32 210.615 1215.34 210.885 1216.28 211.219C1217.22 211.552 1218.05 211.938 1218.78 212.375C1219.51 212.812 1220.01 213.177 1220.28 213.469C1220.57 213.74 1220.76 213.948 1220.84 214.094C1220.93 214.24 1220.99 214.417 1221.03 214.625C1221.09 214.812 1221.14 215.042 1221.16 215.312C1221.2 215.583 1221.22 215.906 1221.22 216.281C1221.22 216.698 1221.2 217.052 1221.16 217.344C1221.11 217.635 1221.05 217.885 1220.97 218.094C1220.89 218.281 1220.78 218.427 1220.66 218.531C1220.55 218.615 1220.42 218.656 1220.25 218.656C1219.96 218.656 1219.55 218.458 1219.03 218.062C1218.51 217.646 1217.83 217.198 1217 216.719C1216.19 216.219 1215.19 215.771 1214 215.375C1212.83 214.958 1211.43 214.75 1209.78 214.75C1207.99 214.75 1206.35 215.115 1204.88 215.844C1203.42 216.552 1202.17 217.604 1201.12 219C1200.08 220.396 1199.27 222.104 1198.69 224.125C1198.12 226.125 1197.84 228.417 1197.84 231C1197.84 233.562 1198.11 235.833 1198.66 237.812C1199.22 239.771 1200.01 241.417 1201.03 242.75C1202.07 244.062 1203.34 245.062 1204.84 245.75C1206.34 246.417 1208.04 246.75 1209.94 246.75C1211.54 246.75 1212.94 246.552 1214.12 246.156C1215.33 245.76 1216.35 245.323 1217.19 244.844C1218.04 244.344 1218.74 243.896 1219.28 243.5C1219.82 243.104 1220.25 242.906 1220.56 242.906C1220.71 242.906 1220.83 242.938 1220.94 243C1221.04 243.062 1221.12 243.188 1221.19 243.375C1221.25 243.542 1221.29 243.781 1221.31 244.094C1221.35 244.406 1221.38 244.802 1221.38 245.281ZM1233.06 250.219C1233.06 250.385 1233.02 250.531 1232.94 250.656C1232.85 250.76 1232.72 250.854 1232.53 250.938C1232.34 251.021 1232.08 251.083 1231.75 251.125C1231.42 251.167 1230.99 251.188 1230.47 251.188C1229.97 251.188 1229.55 251.167 1229.22 251.125C1228.89 251.083 1228.61 251.021 1228.41 250.938C1228.22 250.854 1228.08 250.76 1228 250.656C1227.94 250.531 1227.91 250.385 1227.91 250.219V208.469C1227.91 208.302 1227.94 208.156 1228 208.031C1228.08 207.906 1228.22 207.802 1228.41 207.719C1228.61 207.635 1228.89 207.573 1229.22 207.531C1229.55 207.49 1229.97 207.469 1230.47 207.469C1230.99 207.469 1231.42 207.49 1231.75 207.531C1232.08 207.573 1232.34 207.635 1232.53 207.719C1232.72 207.802 1232.85 207.906 1232.94 208.031C1233.02 208.156 1233.06 208.302 1233.06 208.469V250.219ZM1268.75 235.844C1268.75 238.135 1268.45 240.25 1267.84 242.188C1267.24 244.104 1266.33 245.76 1265.12 247.156C1263.94 248.552 1262.44 249.646 1260.62 250.438C1258.83 251.208 1256.75 251.594 1254.38 251.594C1252.06 251.594 1250.04 251.25 1248.31 250.562C1246.6 249.875 1245.18 248.875 1244.03 247.562C1242.89 246.25 1242.03 244.656 1241.47 242.781C1240.91 240.906 1240.62 238.781 1240.62 236.406C1240.62 234.115 1240.92 232.01 1241.5 230.094C1242.1 228.156 1243 226.49 1244.19 225.094C1245.4 223.698 1246.9 222.615 1248.69 221.844C1250.48 221.073 1252.57 220.688 1254.97 220.688C1257.28 220.688 1259.29 221.031 1261 221.719C1262.73 222.406 1264.17 223.406 1265.31 224.719C1266.46 226.031 1267.31 227.625 1267.88 229.5C1268.46 231.375 1268.75 233.49 1268.75 235.844ZM1263.31 236.188C1263.31 234.667 1263.17 233.229 1262.88 231.875C1262.6 230.521 1262.15 229.333 1261.5 228.312C1260.85 227.292 1259.98 226.49 1258.88 225.906C1257.77 225.302 1256.4 225 1254.75 225C1253.23 225 1251.92 225.271 1250.81 225.812C1249.73 226.354 1248.83 227.125 1248.12 228.125C1247.42 229.104 1246.89 230.271 1246.53 231.625C1246.2 232.979 1246.03 234.458 1246.03 236.062C1246.03 237.604 1246.17 239.052 1246.44 240.406C1246.73 241.76 1247.2 242.948 1247.84 243.969C1248.51 244.969 1249.4 245.771 1250.5 246.375C1251.6 246.958 1252.98 247.25 1254.62 247.25C1256.12 247.25 1257.43 246.979 1258.53 246.438C1259.64 245.896 1260.54 245.135 1261.25 244.156C1261.96 243.177 1262.48 242.01 1262.81 240.656C1263.15 239.302 1263.31 237.812 1263.31 236.188ZM1300.44 250.219C1300.44 250.385 1300.4 250.531 1300.31 250.656C1300.25 250.76 1300.12 250.854 1299.94 250.938C1299.75 251.021 1299.5 251.083 1299.19 251.125C1298.9 251.167 1298.53 251.188 1298.09 251.188C1297.61 251.188 1297.22 251.167 1296.91 251.125C1296.61 251.083 1296.38 251.021 1296.19 250.938C1296.02 250.854 1295.91 250.76 1295.84 250.656C1295.78 250.531 1295.75 250.385 1295.75 250.219V246.5C1294.15 248.271 1292.56 249.562 1291 250.375C1289.44 251.188 1287.85 251.594 1286.25 251.594C1284.38 251.594 1282.79 251.281 1281.5 250.656C1280.23 250.031 1279.2 249.188 1278.41 248.125C1277.61 247.042 1277.04 245.792 1276.69 244.375C1276.35 242.938 1276.19 241.198 1276.19 239.156V222.094C1276.19 221.927 1276.22 221.792 1276.28 221.688C1276.36 221.562 1276.51 221.458 1276.72 221.375C1276.93 221.271 1277.2 221.208 1277.53 221.188C1277.86 221.146 1278.28 221.125 1278.78 221.125C1279.28 221.125 1279.7 221.146 1280.03 221.188C1280.36 221.208 1280.62 221.271 1280.81 221.375C1281.02 221.458 1281.17 221.562 1281.25 221.688C1281.33 221.792 1281.38 221.927 1281.38 222.094V238.469C1281.38 240.115 1281.49 241.438 1281.72 242.438C1281.97 243.417 1282.33 244.26 1282.81 244.969C1283.31 245.656 1283.94 246.198 1284.69 246.594C1285.44 246.969 1286.31 247.156 1287.31 247.156C1288.6 247.156 1289.89 246.698 1291.16 245.781C1292.45 244.865 1293.81 243.521 1295.25 241.75V222.094C1295.25 221.927 1295.28 221.792 1295.34 221.688C1295.43 221.562 1295.57 221.458 1295.78 221.375C1295.99 221.271 1296.25 221.208 1296.56 221.188C1296.9 221.146 1297.32 221.125 1297.84 221.125C1298.34 221.125 1298.76 221.146 1299.09 221.188C1299.43 221.208 1299.69 221.271 1299.88 221.375C1300.06 221.458 1300.2 221.562 1300.28 221.688C1300.39 221.792 1300.44 221.927 1300.44 222.094V250.219ZM1334.06 250.219C1334.06 250.385 1334.02 250.531 1333.94 250.656C1333.88 250.781 1333.75 250.885 1333.56 250.969C1333.4 251.031 1333.17 251.083 1332.88 251.125C1332.58 251.167 1332.23 251.188 1331.81 251.188C1331.38 251.188 1331.01 251.167 1330.72 251.125C1330.43 251.083 1330.19 251.031 1330 250.969C1329.81 250.885 1329.68 250.781 1329.59 250.656C1329.51 250.531 1329.47 250.385 1329.47 250.219V246.5C1327.99 248.104 1326.45 249.354 1324.84 250.25C1323.26 251.146 1321.52 251.594 1319.62 251.594C1317.56 251.594 1315.8 251.198 1314.34 250.406C1312.89 249.594 1311.7 248.51 1310.78 247.156C1309.89 245.781 1309.23 244.177 1308.81 242.344C1308.4 240.49 1308.19 238.542 1308.19 236.5C1308.19 234.083 1308.45 231.906 1308.97 229.969C1309.49 228.01 1310.26 226.344 1311.28 224.969C1312.3 223.594 1313.56 222.542 1315.06 221.812C1316.58 221.062 1318.33 220.688 1320.31 220.688C1321.96 220.688 1323.46 221.052 1324.81 221.781C1326.19 222.49 1327.54 223.542 1328.88 224.938V208.594C1328.88 208.448 1328.91 208.312 1328.97 208.188C1329.05 208.042 1329.2 207.938 1329.41 207.875C1329.61 207.792 1329.88 207.729 1330.19 207.688C1330.52 207.625 1330.94 207.594 1331.44 207.594C1331.96 207.594 1332.39 207.625 1332.72 207.688C1333.05 207.729 1333.31 207.792 1333.5 207.875C1333.69 207.938 1333.82 208.042 1333.91 208.188C1334.01 208.312 1334.06 208.448 1334.06 208.594V250.219ZM1328.88 230.438C1327.48 228.708 1326.12 227.396 1324.81 226.5C1323.52 225.583 1322.17 225.125 1320.75 225.125C1319.44 225.125 1318.32 225.438 1317.41 226.062C1316.49 226.688 1315.74 227.51 1315.16 228.531C1314.59 229.552 1314.18 230.708 1313.91 232C1313.66 233.292 1313.53 234.604 1313.53 235.938C1313.53 237.354 1313.64 238.74 1313.84 240.094C1314.07 241.448 1314.46 242.656 1315 243.719C1315.54 244.76 1316.26 245.604 1317.16 246.25C1318.05 246.875 1319.18 247.188 1320.53 247.188C1321.22 247.188 1321.88 247.094 1322.5 246.906C1323.15 246.719 1323.8 246.406 1324.47 245.969C1325.14 245.531 1325.83 244.969 1326.56 244.281C1327.29 243.573 1328.06 242.708 1328.88 241.688V230.438Z" fill="black"/>
<path d="M1491.09 854.656C1491.09 856.552 1490.74 858.24 1490.03 859.719C1489.34 861.198 1488.38 862.458 1487.12 863.5C1485.9 864.521 1484.44 865.292 1482.75 865.812C1481.08 866.333 1479.28 866.594 1477.34 866.594C1475.99 866.594 1474.73 866.479 1473.56 866.25C1472.42 866.021 1471.39 865.74 1470.47 865.406C1469.57 865.073 1468.81 864.729 1468.19 864.375C1467.58 864.021 1467.16 863.719 1466.91 863.469C1466.68 863.219 1466.5 862.906 1466.38 862.531C1466.27 862.135 1466.22 861.615 1466.22 860.969C1466.22 860.51 1466.24 860.135 1466.28 859.844C1466.32 859.531 1466.39 859.281 1466.47 859.094C1466.55 858.906 1466.66 858.781 1466.78 858.719C1466.91 858.635 1467.05 858.594 1467.22 858.594C1467.51 858.594 1467.92 858.771 1468.44 859.125C1468.98 859.479 1469.67 859.865 1470.5 860.281C1471.33 860.698 1472.33 861.094 1473.5 861.469C1474.69 861.823 1476.05 862 1477.59 862C1478.76 862 1479.82 861.844 1480.78 861.531C1481.76 861.219 1482.59 860.781 1483.28 860.219C1483.99 859.635 1484.53 858.927 1484.91 858.094C1485.28 857.26 1485.47 856.312 1485.47 855.25C1485.47 854.104 1485.21 853.125 1484.69 852.312C1484.17 851.5 1483.48 850.792 1482.62 850.188C1481.77 849.562 1480.79 849 1479.69 848.5C1478.6 847.979 1477.49 847.458 1476.34 846.938C1475.2 846.396 1474.08 845.802 1473 845.156C1471.92 844.51 1470.95 843.75 1470.09 842.875C1469.24 842 1468.54 840.979 1468 839.812C1467.48 838.625 1467.22 837.208 1467.22 835.562C1467.22 833.875 1467.52 832.375 1468.12 831.062C1468.75 829.729 1469.6 828.615 1470.69 827.719C1471.79 826.823 1473.09 826.146 1474.59 825.688C1476.11 825.208 1477.75 824.969 1479.5 824.969C1480.4 824.969 1481.29 825.052 1482.19 825.219C1483.1 825.365 1483.96 825.573 1484.75 825.844C1485.56 826.094 1486.28 826.385 1486.91 826.719C1487.53 827.031 1487.94 827.292 1488.12 827.5C1488.33 827.688 1488.47 827.844 1488.53 827.969C1488.59 828.073 1488.65 828.219 1488.69 828.406C1488.73 828.573 1488.76 828.781 1488.78 829.031C1488.8 829.281 1488.81 829.604 1488.81 830C1488.81 830.375 1488.79 830.708 1488.75 831C1488.73 831.292 1488.69 831.542 1488.62 831.75C1488.56 831.938 1488.47 832.083 1488.34 832.188C1488.24 832.271 1488.11 832.312 1487.97 832.312C1487.74 832.312 1487.38 832.167 1486.88 831.875C1486.4 831.583 1485.8 831.26 1485.09 830.906C1484.39 830.531 1483.54 830.198 1482.56 829.906C1481.6 829.594 1480.52 829.438 1479.31 829.438C1478.19 829.438 1477.21 829.594 1476.38 829.906C1475.54 830.198 1474.85 830.594 1474.31 831.094C1473.77 831.594 1473.36 832.188 1473.09 832.875C1472.82 833.562 1472.69 834.292 1472.69 835.062C1472.69 836.188 1472.95 837.156 1473.47 837.969C1473.99 838.781 1474.68 839.5 1475.53 840.125C1476.41 840.75 1477.4 841.323 1478.5 841.844C1479.6 842.365 1480.73 842.896 1481.88 843.438C1483.02 843.958 1484.15 844.542 1485.25 845.188C1486.35 845.812 1487.33 846.562 1488.19 847.438C1489.06 848.292 1489.76 849.312 1490.28 850.5C1490.82 851.667 1491.09 853.052 1491.09 854.656ZM1522.31 865.219C1522.31 865.385 1522.27 865.531 1522.19 865.656C1522.12 865.76 1522 865.854 1521.81 865.938C1521.62 866.021 1521.38 866.083 1521.06 866.125C1520.77 866.167 1520.41 866.188 1519.97 866.188C1519.49 866.188 1519.09 866.167 1518.78 866.125C1518.49 866.083 1518.25 866.021 1518.06 865.938C1517.9 865.854 1517.78 865.76 1517.72 865.656C1517.66 865.531 1517.62 865.385 1517.62 865.219V861.5C1516.02 863.271 1514.44 864.562 1512.88 865.375C1511.31 866.188 1509.73 866.594 1508.12 866.594C1506.25 866.594 1504.67 866.281 1503.38 865.656C1502.1 865.031 1501.07 864.188 1500.28 863.125C1499.49 862.042 1498.92 860.792 1498.56 859.375C1498.23 857.938 1498.06 856.198 1498.06 854.156V837.094C1498.06 836.927 1498.09 836.792 1498.16 836.688C1498.24 836.562 1498.39 836.458 1498.59 836.375C1498.8 836.271 1499.07 836.208 1499.41 836.188C1499.74 836.146 1500.16 836.125 1500.66 836.125C1501.16 836.125 1501.57 836.146 1501.91 836.188C1502.24 836.208 1502.5 836.271 1502.69 836.375C1502.9 836.458 1503.04 836.562 1503.12 836.688C1503.21 836.792 1503.25 836.927 1503.25 837.094V853.469C1503.25 855.115 1503.36 856.438 1503.59 857.438C1503.84 858.417 1504.21 859.26 1504.69 859.969C1505.19 860.656 1505.81 861.198 1506.56 861.594C1507.31 861.969 1508.19 862.156 1509.19 862.156C1510.48 862.156 1511.76 861.698 1513.03 860.781C1514.32 859.865 1515.69 858.521 1517.12 856.75V837.094C1517.12 836.927 1517.16 836.792 1517.22 836.688C1517.3 836.562 1517.45 836.458 1517.66 836.375C1517.86 836.271 1518.12 836.208 1518.44 836.188C1518.77 836.146 1519.2 836.125 1519.72 836.125C1520.22 836.125 1520.64 836.146 1520.97 836.188C1521.3 836.208 1521.56 836.271 1521.75 836.375C1521.94 836.458 1522.07 836.562 1522.16 836.688C1522.26 836.792 1522.31 836.927 1522.31 837.094V865.219ZM1557.72 850.719C1557.72 853.177 1557.45 855.385 1556.91 857.344C1556.39 859.302 1555.6 860.969 1554.56 862.344C1553.54 863.698 1552.27 864.75 1550.75 865.5C1549.23 866.229 1547.49 866.594 1545.53 866.594C1544.7 866.594 1543.93 866.51 1543.22 866.344C1542.51 866.177 1541.81 865.917 1541.12 865.562C1540.46 865.208 1539.79 864.76 1539.12 864.219C1538.46 863.677 1537.75 863.042 1537 862.312V876.375C1537 876.542 1536.96 876.688 1536.88 876.812C1536.79 876.938 1536.66 877.042 1536.47 877.125C1536.28 877.208 1536.02 877.271 1535.69 877.312C1535.35 877.354 1534.93 877.375 1534.41 877.375C1533.91 877.375 1533.49 877.354 1533.16 877.312C1532.82 877.271 1532.55 877.208 1532.34 877.125C1532.16 877.042 1532.02 876.938 1531.94 876.812C1531.88 876.688 1531.84 876.542 1531.84 876.375V837.094C1531.84 836.906 1531.88 836.76 1531.94 836.656C1532 836.531 1532.12 836.427 1532.31 836.344C1532.5 836.26 1532.74 836.208 1533.03 836.188C1533.32 836.146 1533.68 836.125 1534.09 836.125C1534.53 836.125 1534.89 836.146 1535.16 836.188C1535.45 836.208 1535.69 836.26 1535.88 836.344C1536.06 836.427 1536.19 836.531 1536.25 836.656C1536.33 836.76 1536.38 836.906 1536.38 837.094V840.875C1537.23 840 1538.05 839.24 1538.84 838.594C1539.64 837.948 1540.43 837.417 1541.22 837C1542.03 836.562 1542.85 836.24 1543.69 836.031C1544.54 835.802 1545.44 835.688 1546.38 835.688C1548.42 835.688 1550.16 836.083 1551.59 836.875C1553.03 837.667 1554.2 838.75 1555.09 840.125C1556.01 841.5 1556.68 843.104 1557.09 844.938C1557.51 846.75 1557.72 848.677 1557.72 850.719ZM1552.28 851.312C1552.28 849.875 1552.17 848.49 1551.94 847.156C1551.73 845.802 1551.35 844.604 1550.81 843.562C1550.29 842.521 1549.58 841.688 1548.69 841.062C1547.79 840.438 1546.68 840.125 1545.34 840.125C1544.68 840.125 1544.02 840.229 1543.38 840.438C1542.73 840.625 1542.07 840.938 1541.41 841.375C1540.74 841.792 1540.04 842.354 1539.31 843.062C1538.58 843.75 1537.81 844.604 1537 845.625V856.812C1538.42 858.542 1539.76 859.865 1541.03 860.781C1542.3 861.698 1543.64 862.156 1545.03 862.156C1546.32 862.156 1547.43 861.844 1548.34 861.219C1549.28 860.594 1550.03 859.76 1550.59 858.719C1551.18 857.677 1551.6 856.51 1551.88 855.219C1552.15 853.927 1552.28 852.625 1552.28 851.312ZM1591.62 850.844C1591.62 853.135 1591.32 855.25 1590.72 857.188C1590.11 859.104 1589.21 860.76 1588 862.156C1586.81 863.552 1585.31 864.646 1583.5 865.438C1581.71 866.208 1579.62 866.594 1577.25 866.594C1574.94 866.594 1572.92 866.25 1571.19 865.562C1569.48 864.875 1568.05 863.875 1566.91 862.562C1565.76 861.25 1564.91 859.656 1564.34 857.781C1563.78 855.906 1563.5 853.781 1563.5 851.406C1563.5 849.115 1563.79 847.01 1564.38 845.094C1564.98 843.156 1565.88 841.49 1567.06 840.094C1568.27 838.698 1569.77 837.615 1571.56 836.844C1573.35 836.073 1575.45 835.688 1577.84 835.688C1580.16 835.688 1582.17 836.031 1583.88 836.719C1585.6 837.406 1587.04 838.406 1588.19 839.719C1589.33 841.031 1590.19 842.625 1590.75 844.5C1591.33 846.375 1591.62 848.49 1591.62 850.844ZM1586.19 851.188C1586.19 849.667 1586.04 848.229 1585.75 846.875C1585.48 845.521 1585.02 844.333 1584.38 843.312C1583.73 842.292 1582.85 841.49 1581.75 840.906C1580.65 840.302 1579.27 840 1577.62 840C1576.1 840 1574.79 840.271 1573.69 840.812C1572.6 841.354 1571.71 842.125 1571 843.125C1570.29 844.104 1569.76 845.271 1569.41 846.625C1569.07 847.979 1568.91 849.458 1568.91 851.062C1568.91 852.604 1569.04 854.052 1569.31 855.406C1569.6 856.76 1570.07 857.948 1570.72 858.969C1571.39 859.969 1572.27 860.771 1573.38 861.375C1574.48 861.958 1575.85 862.25 1577.5 862.25C1579 862.25 1580.3 861.979 1581.41 861.438C1582.51 860.896 1583.42 860.135 1584.12 859.156C1584.83 858.177 1585.35 857.01 1585.69 855.656C1586.02 854.302 1586.19 852.812 1586.19 851.188ZM1615.66 838.938C1615.66 839.396 1615.65 839.781 1615.62 840.094C1615.6 840.406 1615.56 840.656 1615.5 840.844C1615.44 841.01 1615.35 841.146 1615.25 841.25C1615.17 841.333 1615.04 841.375 1614.88 841.375C1614.71 841.375 1614.5 841.333 1614.25 841.25C1614.02 841.146 1613.75 841.052 1613.44 840.969C1613.15 840.865 1612.81 840.771 1612.44 840.688C1612.06 840.604 1611.66 840.562 1611.22 840.562C1610.7 840.562 1610.19 840.667 1609.69 840.875C1609.19 841.083 1608.66 841.427 1608.09 841.906C1607.55 842.385 1606.98 843.021 1606.38 843.812C1605.77 844.604 1605.1 845.573 1604.38 846.719V865.219C1604.38 865.385 1604.33 865.531 1604.25 865.656C1604.17 865.76 1604.03 865.854 1603.84 865.938C1603.66 866.021 1603.4 866.083 1603.06 866.125C1602.73 866.167 1602.3 866.188 1601.78 866.188C1601.28 866.188 1600.86 866.167 1600.53 866.125C1600.2 866.083 1599.93 866.021 1599.72 865.938C1599.53 865.854 1599.4 865.76 1599.31 865.656C1599.25 865.531 1599.22 865.385 1599.22 865.219V837.094C1599.22 836.927 1599.25 836.792 1599.31 836.688C1599.38 836.562 1599.5 836.458 1599.69 836.375C1599.88 836.271 1600.11 836.208 1600.41 836.188C1600.7 836.146 1601.08 836.125 1601.56 836.125C1602.02 836.125 1602.4 836.146 1602.69 836.188C1603 836.208 1603.24 836.271 1603.41 836.375C1603.57 836.458 1603.69 836.562 1603.75 836.688C1603.83 836.792 1603.88 836.927 1603.88 837.094V841.188C1604.65 840.062 1605.36 839.146 1606.03 838.438C1606.72 837.729 1607.36 837.177 1607.97 836.781C1608.57 836.365 1609.17 836.083 1609.75 835.938C1610.35 835.771 1610.96 835.688 1611.56 835.688C1611.83 835.688 1612.14 835.708 1612.47 835.75C1612.82 835.771 1613.19 835.823 1613.56 835.906C1613.94 835.99 1614.27 836.083 1614.56 836.188C1614.88 836.292 1615.09 836.396 1615.22 836.5C1615.34 836.604 1615.43 836.708 1615.47 836.812C1615.51 836.896 1615.54 837.01 1615.56 837.156C1615.6 837.302 1615.62 837.521 1615.62 837.812C1615.65 838.083 1615.66 838.458 1615.66 838.938ZM1636.16 863.156C1636.16 863.76 1636.11 864.24 1636.03 864.594C1635.95 864.948 1635.82 865.208 1635.66 865.375C1635.49 865.542 1635.24 865.698 1634.91 865.844C1634.57 865.99 1634.19 866.104 1633.75 866.188C1633.33 866.292 1632.89 866.375 1632.41 866.438C1631.93 866.5 1631.45 866.531 1630.97 866.531C1629.51 866.531 1628.26 866.344 1627.22 865.969C1626.18 865.573 1625.32 864.99 1624.66 864.219C1623.99 863.427 1623.5 862.438 1623.19 861.25C1622.9 860.042 1622.75 858.625 1622.75 857V840.562H1618.81C1618.5 840.562 1618.25 840.396 1618.06 840.062C1617.88 839.729 1617.78 839.188 1617.78 838.438C1617.78 838.042 1617.8 837.708 1617.84 837.438C1617.91 837.167 1617.98 836.948 1618.06 836.781C1618.15 836.594 1618.25 836.469 1618.38 836.406C1618.52 836.323 1618.68 836.281 1618.84 836.281H1622.75V829.594C1622.75 829.448 1622.78 829.312 1622.84 829.188C1622.93 829.062 1623.06 828.958 1623.25 828.875C1623.46 828.771 1623.73 828.698 1624.06 828.656C1624.4 828.615 1624.81 828.594 1625.31 828.594C1625.83 828.594 1626.26 828.615 1626.59 828.656C1626.93 828.698 1627.19 828.771 1627.38 828.875C1627.56 828.958 1627.7 829.062 1627.78 829.188C1627.86 829.312 1627.91 829.448 1627.91 829.594V836.281H1635.12C1635.29 836.281 1635.44 836.323 1635.56 836.406C1635.69 836.469 1635.79 836.594 1635.88 836.781C1635.98 836.948 1636.05 837.167 1636.09 837.438C1636.14 837.708 1636.16 838.042 1636.16 838.438C1636.16 839.188 1636.06 839.729 1635.88 840.062C1635.69 840.396 1635.44 840.562 1635.12 840.562H1627.91V856.25C1627.91 858.188 1628.19 859.656 1628.75 860.656C1629.33 861.635 1630.36 862.125 1631.84 862.125C1632.32 862.125 1632.75 862.083 1633.12 862C1633.5 861.896 1633.83 861.792 1634.12 861.688C1634.42 861.583 1634.67 861.49 1634.88 861.406C1635.08 861.302 1635.27 861.25 1635.44 861.25C1635.54 861.25 1635.64 861.281 1635.72 861.344C1635.82 861.385 1635.9 861.479 1635.94 861.625C1636 861.771 1636.05 861.969 1636.09 862.219C1636.14 862.469 1636.16 862.781 1636.16 863.156ZM1666.28 849.938C1666.28 850.75 1666.07 851.333 1665.66 851.688C1665.26 852.021 1664.8 852.188 1664.28 852.188H1645.84C1645.84 853.75 1646 855.156 1646.31 856.406C1646.62 857.656 1647.15 858.729 1647.88 859.625C1648.6 860.521 1649.55 861.208 1650.72 861.688C1651.89 862.167 1653.31 862.406 1655 862.406C1656.33 862.406 1657.52 862.302 1658.56 862.094C1659.6 861.865 1660.5 861.615 1661.25 861.344C1662.02 861.073 1662.65 860.833 1663.12 860.625C1663.62 860.396 1664 860.281 1664.25 860.281C1664.4 860.281 1664.52 860.323 1664.62 860.406C1664.75 860.469 1664.84 860.573 1664.91 860.719C1664.97 860.865 1665.01 861.073 1665.03 861.344C1665.07 861.594 1665.09 861.906 1665.09 862.281C1665.09 862.552 1665.08 862.792 1665.06 863C1665.04 863.188 1665.01 863.365 1664.97 863.531C1664.95 863.677 1664.9 863.812 1664.81 863.938C1664.75 864.062 1664.66 864.188 1664.53 864.312C1664.43 864.417 1664.09 864.604 1663.53 864.875C1662.97 865.125 1662.24 865.375 1661.34 865.625C1660.45 865.875 1659.41 866.094 1658.22 866.281C1657.05 866.49 1655.8 866.594 1654.47 866.594C1652.16 866.594 1650.12 866.271 1648.38 865.625C1646.65 864.979 1645.19 864.021 1644 862.75C1642.81 861.479 1641.92 859.885 1641.31 857.969C1640.71 856.052 1640.41 853.823 1640.41 851.281C1640.41 848.865 1640.72 846.698 1641.34 844.781C1641.97 842.844 1642.86 841.208 1644.03 839.875C1645.22 838.521 1646.65 837.49 1648.31 836.781C1649.98 836.052 1651.84 835.688 1653.91 835.688C1656.11 835.688 1657.99 836.042 1659.53 836.75C1661.09 837.458 1662.38 838.417 1663.38 839.625C1664.38 840.812 1665.1 842.219 1665.56 843.844C1666.04 845.448 1666.28 847.167 1666.28 849V849.938ZM1661.09 848.406C1661.16 845.698 1660.55 843.573 1659.28 842.031C1658.03 840.49 1656.17 839.719 1653.69 839.719C1652.42 839.719 1651.3 839.958 1650.34 840.438C1649.39 840.917 1648.58 841.552 1647.94 842.344C1647.29 843.135 1646.79 844.062 1646.44 845.125C1646.08 846.167 1645.89 847.26 1645.84 848.406H1661.09Z" fill="black"/>
<path d="M1596.86 679.719V639.926C1596.86 623.738 1583.69 610.57 1567.5 610.57C1551.31 610.57 1538.14 623.738 1538.14 639.926V679.719H1518.57V639.926C1518.57 612.95 1540.52 591 1567.5 591C1594.48 591 1616.43 612.95 1616.43 639.926V679.719H1596.86Z" fill="#C4CAD9"/>
<path d="M1596.86 639.926V679.719H1616.43V639.926C1616.43 612.95 1594.48 591 1567.5 591V610.57C1583.69 610.57 1596.86 623.738 1596.86 639.926Z" fill="#BBC2CD"/>
<path d="M1616.43 758H1518.57C1510.48 758 1503.9 751.416 1503.9 743.322V684.611C1503.9 676.518 1510.48 669.934 1518.57 669.934H1616.43C1624.52 669.934 1631.1 676.518 1631.1 684.611V743.322C1631.1 751.416 1624.52 758 1616.43 758Z" fill="#FCB33B"/>
<path d="M1616.43 669.934H1567.5V758H1616.43C1624.52 758 1631.1 751.416 1631.1 743.322V684.611C1631.1 676.518 1624.52 669.934 1616.43 669.934Z" fill="#F69838"/>
<path d="M1582.18 704.182C1582.18 696.088 1575.59 689.504 1567.5 689.504C1559.41 689.504 1552.82 696.088 1552.82 704.182C1552.82 710.555 1556.92 715.935 1562.61 717.961V733.537C1562.61 736.241 1564.8 738.43 1567.5 738.43C1570.2 738.43 1572.39 736.241 1572.39 733.537V717.961C1578.08 715.935 1582.18 710.555 1582.18 704.182Z" fill="#5C5F66"/>
<path d="M1572.39 733.537V717.961C1578.08 715.935 1582.18 710.555 1582.18 704.182C1582.18 696.088 1575.59 689.504 1567.5 689.504V738.43C1570.2 738.43 1572.39 736.241 1572.39 733.537Z" fill="#53565C"/>
</g>
<defs>
<linearGradient id="paint0_linear_1_2" x1="362.967" y1="711.45" x2="568.5" y2="511.5" gradientUnits="userSpaceOnUse">
<stop offset="0.5889" stop-color="#C74634"/>
<stop offset="0.589" stop-color="#D9D9D9"/>
</linearGradient>
<clipPath id="clip0_1_2">
<rect width="1920" height="1080" fill="white"/>
</clipPath>
</defs>
</svg>
