<?xml version="1.0" encoding="UTF-8" standalone="no"?>
<!-- Created with Inkscape (http://www.inkscape.org/) -->

<svg
   width="38.293736mm"
   height="36.510784mm"
   viewBox="0 0 38.293736 36.510784"
   version="1.1"
   id="svg1"
   inkscape:export-filename="barraProgresso.svg"
   inkscape:export-xdpi="96"
   inkscape:export-ydpi="96"
   xml:space="preserve"
   xmlns:inkscape="http://www.inkscape.org/namespaces/inkscape"
   xmlns:sodipodi="http://sodipodi.sourceforge.net/DTD/sodipodi-0.dtd"
   xmlns="http://www.w3.org/2000/svg"
   xmlns:svg="http://www.w3.org/2000/svg"><sodipodi:namedview
     id="namedview1"
     pagecolor="#505050"
     bordercolor="#ffffff"
     borderopacity="1"
     inkscape:showpageshadow="0"
     inkscape:pageopacity="0"
     inkscape:pagecheckerboard="1"
     inkscape:deskcolor="#505050"
     inkscape:document-units="mm" /><defs
     id="defs1" /><g
     inkscape:label="Camada 1"
     inkscape:groupmode="layer"
     id="layer1"
     transform="translate(-8.5572064,-35.85908)"><path
       d="M 45.615647,54.435978 H 9.7925415 c -0.6821965,0 -1.2352581,0.621164 -1.2352581,1.387364 v 2.774815 c 0,0.7662 0.5530616,1.387364 1.2352581,1.387364 H 45.61557 c 0.682196,0 1.235258,-0.621164 1.235258,-1.387364 v -2.774815 c 7.7e-5,-0.7662 -0.552985,-1.387364 -1.235181,-1.387364 z"
       fill="#eceaec"
       data-original="#eceaec"
       class=""
       id="path2"
       style="stroke-width:0.0816557" /><path
       d="m 44.998018,54.435978 v 2.081046 c 0,0.7662 -0.553062,1.387364 -1.235259,1.387364 H 33.262833 v 2.081046 h 12.352814 c 0.682196,0 1.235258,-0.621164 1.235258,-1.387364 v -2.774814 c 0,-0.7662 -0.553062,-1.387364 -1.235258,-1.387364 h -0.617629 z"
       fill="#dbd8db"
       data-original="#dbd8db"
       class=""
       id="path3-7"
       style="fill:#c8b7b7;stroke-width:0.0816557" /><path
       d="M 30.792317,54.435978 H 9.7925415 c -0.6821965,0 -1.2352581,0.621164 -1.2352581,1.387364 v 2.774815 c 0,0.7662 0.5530616,1.387364 1.2352581,1.387364 H 30.79224 v -5.549543 z"
       fill="#ffd05b"
       data-original="#ffd05b"
       class="hovered-path custom-cursor-on-hover"
       id="path8-5"
       style="stroke-width:0.0816557" /><path
       d="m 30.792317,54.435978 h 2.470593 v 5.549543 h -2.470593 z"
       fill="#ffe077"
       data-original="#ffe077"
       id="path9-1"
       style="stroke-width:0.0816557" /><path
       d="m 30.792317,57.904475 h 2.470593 v 2.081046 h -2.470593 z"
       fill="#ffd05b"
       data-original="#ffd05b"
       class=""
       id="path11"
       style="stroke-width:0.0816557" /><path
       d="m 8.5572834,57.904475 v 0.693682 c 0,0.7662 0.5531387,1.387364 1.2352581,1.387364 H 30.79224 v -2.081046 z"
       fill="#ffc244"
       data-original="#ffc244"
       class=""
       id="path12-1"
       style="stroke-width:0.0816557" /><path
       d="M 45.615685,48.243765 H 9.7925799 c -0.682197,0 -1.235258,0.621164 -1.235258,1.387364 v 2.774815 c 0,0.7662 0.553061,1.387364 1.235258,1.387364 H 45.615608 c 0.682196,0 1.235258,-0.621164 1.235258,-1.387364 v -2.774815 c 7.7e-5,-0.7662 -0.552985,-1.387364 -1.235181,-1.387364 z"
       fill="#eceaec"
       data-original="#eceaec"
       class=""
       id="path2-8"
       style="stroke-width:0.0816557" /><path
       d="m 44.998056,48.243765 v 2.081046 c 0,0.7662 -0.553062,1.387364 -1.235259,1.387364 H 33.262871 v 2.081046 h 12.352814 c 0.682196,0 1.235258,-0.621164 1.235258,-1.387364 v -2.774814 c 0,-0.7662 -0.553062,-1.387364 -1.235258,-1.387364 h -0.617629 z"
       fill="#dbd8db"
       data-original="#dbd8db"
       class=""
       id="path3-7-3"
       style="fill:#c8b7b7;stroke-width:0.0816557" /><path
       d="M 26.284732,48.243765 H 9.5421607 c -0.5438977,0 -0.9848388,0.621164 -0.9848388,1.387364 v 2.774815 c 0,0.7662 0.4409411,1.387364 0.9848388,1.387364 H 26.284671 v -5.549543 z"
       fill="#ffd05b"
       data-original="#ffd05b"
       class="hovered-path custom-cursor-on-hover"
       id="path8-5-6"
       style="fill:#ffe680;stroke-width:0.0729105" /><path
       d="m 26.284671,48.243765 h 2.470593 v 5.549543 h -2.470593 z"
       fill="#ffe077"
       data-original="#ffe077"
       id="path9-1-7"
       style="fill:#ffeeaa;stroke-width:0.0816557" /><path
       d="m 26.284671,51.712262 h 2.470593 v 2.081046 h -2.470593 z"
       fill="#ffd05b"
       data-original="#ffd05b"
       class=""
       id="path11-9"
       style="fill:#ffe680;stroke-width:0.0816557" /><path
       d="m 28.708741,51.712262 h 4.55413 v 2.081046 h -4.55413 z"
       fill="#ffd05b"
       data-original="#ffd05b"
       class=""
       id="path11-9-2"
       style="fill:#c8b7b7;fill-opacity:1;stroke-width:0.110864" /><path
       d="m 8.5573219,51.712262 v 0.693682 c 0,0.7662 0.4410033,1.387364 0.984839,1.387364 H 26.284671 v -2.081046 z"
       fill="#ffc244"
       data-original="#ffc244"
       class=""
       id="path12-1-1"
       style="fill:#ffd42a;stroke-width:0.0729105" /><path
       d="M 45.615569,72.36986 H 44.38031 v -5.549542 h 1.235259 c 0.682196,0 1.235258,0.621164 1.235258,1.387364 v 2.774814 c 0,0.7662 -0.553062,1.387364 -1.235258,1.387364 z"
       fill="#dbd8db"
       data-original="#dbd8db"
       class=""
       id="path1"
       style="fill:#c8b7b7;stroke-width:0.0816557" /><path
       d="M 41.909717,66.820318 H 44.38031 V 72.36986 H 41.909717 Z"
       fill="#b8eb7c"
       data-original="#b8eb7c"
       id="path10-4"
       style="stroke-width:0.0816557" /><path
       d="m 41.909717,70.288814 h 2.470593 v 2.081046 h -2.470593 z m 0,-3.468496 H 9.7924646 c -0.6821965,0 -1.2352581,0.621164 -1.2352581,1.387364 v 2.774814 c 0,0.7662 0.5530616,1.387364 1.2352581,1.387364 H 41.909717 Z"
       fill="#98db7c"
       data-original="#98db7c"
       class="hovered-path custom-cursor-on-hover"
       id="path13-9"
       style="stroke-width:0.0816557" /><path
       d="m 8.5572065,70.982496 c 0,0.7662 0.5530616,1.387364 1.2352581,1.387364 H 41.909717 V 70.288814 H 8.5572065 Z"
       fill="#77cc7d"
       data-original="#77cc7d"
       class="hovered-path custom-cursor-on-hover"
       id="path14"
       style="stroke-width:0.0816557" /><path
       d="M 45.615646,42.051466 H 9.7925415 c -0.6821965,0 -1.2352581,0.621163 -1.2352581,1.387363 v 2.774815 c 0,0.7662 0.5530616,1.387364 1.2352581,1.387364 H 45.615569 c 0.682196,0 1.235258,-0.621164 1.235258,-1.387364 v -2.774815 c 7.7e-5,-0.766286 -0.552984,-1.387363 -1.235181,-1.387363 z"
       fill="#eceaec"
       data-original="#eceaec"
       class=""
       id="path4-6"
       style="stroke-width:0.0816557" /><path
       d="M 15.968987,42.051466 H 9.7925415 c -0.6821965,0 -1.2352581,0.621163 -1.2352581,1.387363 v 2.774815 c 0,0.7662 0.5530616,1.387364 1.2352581,1.387364 h 6.1763675 v -5.549542 z"
       fill="#ff5f7a"
       data-original="#ff5f7a"
       id="path5-0"
       style="stroke-width:0.0816557" /><path
       d="m 15.968987,42.051466 h 2.470593 v 5.549542 h -2.470593 z"
       fill="#ff7e92"
       data-original="#ff7e92"
       id="path6-5"
       style="stroke-width:0.0816557" /><path
       d="m 15.968987,45.519875 h 2.470593 v 2.081046 h -2.470593 z"
       fill="#ff5f7a"
       data-original="#ff5f7a"
       id="path7-3"
       style="stroke-width:0.0816557" /><path
       d="m 44.998017,42.051466 v 2.081045 c 0,0.7662 -0.553062,1.387364 -1.235259,1.387364 H 18.439502 v 2.081046 h 27.176144 c 0.682196,0 1.235258,-0.621164 1.235258,-1.387364 v -2.774814 c 0,-0.7662 -0.553061,-1.387364 -1.235258,-1.387364 h -0.617629 z"
       fill="#dbd8db"
       data-original="#dbd8db"
       class="hovered-path custom-cursor-on-hover"
       id="path15"
       style="fill:#c8b7b7;stroke-width:0.0816557" /><path
       d="m 8.5572834,45.519875 v 0.693682 c 0,0.7662 0.5531387,1.387364 1.2352581,1.387364 h 6.1763675 v -2.081046 z"
       fill="#fb4455"
       data-original="#fb4455"
       id="path16"
       style="stroke-width:0.0816557" /><path
       d="M 45.615608,35.859167 H 9.792503 c -0.6821961,0 -1.2352581,0.621163 -1.2352581,1.387363 v 2.774815 c 0,0.7662 0.553062,1.387364 1.2352581,1.387364 h 35.823028 c 0.682196,0 1.235258,-0.621164 1.235258,-1.387364 V 37.24653 c 7.7e-5,-0.766286 -0.552985,-1.387363 -1.235181,-1.387363 z"
       fill="#eceaec"
       data-original="#eceaec"
       class=""
       id="path4-6-5"
       style="stroke:#000000;stroke-width:0;stroke-dasharray:none;stroke-opacity:1" /><path
       d="m 15.968948,39.327576 h 2.470594 v 2.081046 h -2.470594 z"
       fill="#ff5f7a"
       data-original="#ff5f7a"
       id="path7-3-7"
       style="fill:#c8b7b7;fill-opacity:1;stroke:#000000;stroke-width:0;stroke-dasharray:none;stroke-opacity:1" /><path
       d="m 44.997979,35.859167 v 2.081045 c 0,0.7662 -0.553062,1.387364 -1.235259,1.387364 H 18.439464 v 2.081046 h 27.176144 c 0.682196,0 1.235258,-0.621164 1.235258,-1.387364 v -2.774814 c 0,-0.7662 -0.553062,-1.387364 -1.235258,-1.387364 h -0.617629 z"
       fill="#dbd8db"
       data-original="#dbd8db"
       class="hovered-path custom-cursor-on-hover"
       id="path15-4"
       style="fill:#c8b7b7;stroke:#000000;stroke-width:0;stroke-dasharray:none;stroke-opacity:1" /><path
       d="m 8.5572449,39.327576 v 0.693682 c 0,0.7662 0.553139,1.387364 1.2352581,1.387364 h 6.176368 v -2.081046 z"
       fill="#fb4455"
       data-original="#fb4455"
       id="path16-5"
       style="fill:#c8b7b7;fill-opacity:1;stroke:#000000;stroke-width:0;stroke-dasharray:none;stroke-opacity:1" /></g><path
     d="M 37.058402,24.769111 H 1.2352967 c -0.68219645,0 -1.235258050765,0.621164 -1.235258050765,1.387364 v 2.774815 c 0,0.7662 0.553061600765,1.387364 1.235258050765,1.387364 H 37.058325 c 0.682196,0 1.235258,-0.621164 1.235258,-1.387364 v -2.774815 c 7.7e-5,-0.7662 -0.552985,-1.387364 -1.235181,-1.387364 z"
     fill="#eceaec"
     data-original="#eceaec"
     class=""
     id="path2-7"
     style="stroke-width:0.0816557" /><path
     d="m 36.440773,24.769111 v 2.081046 c 0,0.7662 -0.553062,1.387364 -1.235259,1.387364 H 24.705588 v 2.081046 h 12.352814 c 0.682196,0 1.235258,-0.621164 1.235258,-1.387364 v -2.774814 c 0,-0.7662 -0.553062,-1.387364 -1.235258,-1.387364 h -0.617629 z"
     fill="#dbd8db"
     data-original="#dbd8db"
     class=""
     id="path3-7-0"
     style="fill:#c8b7b7;stroke-width:0.0816557" /><path
     d="M 28.4115,24.769111 H 1.5784256 c -0.87169635,0 -1.578386950765,0.621164 -1.578386950765,1.387364 v 2.774815 c 0,0.7662 0.706690600765,1.387364 1.578386950765,1.387364 H 28.411402 v -5.549543 z"
     fill="#ffd05b"
     data-original="#ffd05b"
     class="hovered-path custom-cursor-on-hover"
     id="path8-5-4"
     style="fill:#ff9955;stroke-width:0.0923027" /><path
     d="m 28.411402,24.769024 h 2.470593 v 5.549543 h -2.470593 z"
     fill="#ffe077"
     data-original="#ffe077"
     id="path9-1-0"
     style="fill:#ffb380;stroke-width:0.0816557" /><path
     d="m 22.235072,28.237608 h 2.470593 v 2.081046 h -2.470593 z"
     fill="#ffd05b"
     data-original="#ffd05b"
     class=""
     id="path11-98"
     style="stroke-width:0.0816557" /><path
     d="m 3.8649235e-5,28.237608 v 0.693682 c 0,0.7662 0.706791500765,1.387364 1.578391950765,1.387364 H 28.4115 v -2.081046 z"
     fill="#ffc244"
     data-original="#ffc244"
     class=""
     id="path12-1-9"
     style="fill:#d45500;stroke-width:0.0923029" /><path
     d="m 28.411402,28.237608 h 2.470593 v 2.081046 h -2.470593 z"
     fill="#ffd05b"
     data-original="#ffd05b"
     class=""
     id="path11-5"
     style="fill:#ff9955;stroke-width:0.0816557" /></svg>
