<?xml version="1.0" encoding="UTF-8" standalone="no"?>
<!-- Created with Inkscape (http://www.inkscape.org/) -->

<svg
   width="88.488907mm"
   height="70.137543mm"
   viewBox="0 0 88.488907 70.137543"
   version="1.1"
   id="svg1"
   xml:space="preserve"
   xmlns:inkscape="http://www.inkscape.org/namespaces/inkscape"
   xmlns:sodipodi="http://sodipodi.sourceforge.net/DTD/sodipodi-0.dtd"
   xmlns="http://www.w3.org/2000/svg"
   xmlns:svg="http://www.w3.org/2000/svg"><sodipodi:namedview
     id="namedview1"
     pagecolor="#ffffff"
     bordercolor="#000000"
     borderopacity="0.25"
     inkscape:showpageshadow="2"
     inkscape:pageopacity="0.0"
     inkscape:pagecheckerboard="0"
     inkscape:deskcolor="#d1d1d1"
     inkscape:document-units="mm"
     showguides="true" /><defs
     id="defs1"><inkscape:path-effect
       effect="fillet_chamfer"
       id="path-effect1"
       is_visible="true"
       lpeversion="1"
       nodesatellites_param="F,0,0,1,0,18,0,1 @ F,0,0,1,0,18,0,1 @ F,0,0,1,0,18,0,1 @ F,0,0,1,0,18,0,1"
       radius="18"
       unit="px"
       method="auto"
       mode="F"
       chamfer_steps="1"
       flexible="false"
       use_knot_distance="true"
       apply_no_radius="true"
       apply_with_radius="true"
       only_selected="false"
       hide_knots="false" /></defs><g
     inkscape:label="Camada 1"
     inkscape:groupmode="layer"
     id="layer1"><path
       style="fill:#f5e8b5;fill-opacity:0.656455;stroke:#73603b;stroke-width:1.029;stroke-linecap:round;stroke-linejoin:round;stroke-opacity:1"
       id="rect1"
       width="403.89325"
       height="214.00314"
       x="455.13342"
       y="238.11617"
       sodipodi:type="rect"
       inkscape:export-filename="scroll.svg"
       inkscape:export-xdpi="96"
       inkscape:export-ydpi="96"
       transform="matrix(0.21853307,0,0,0.32617234,-99.349269,-77.499091)"
       d="m 473.13342,238.11617 h 367.89325 a 18,18 45 0 1 18,18 l 0,178.00314 a 18,18 135 0 1 -18,18 H 473.13342 a 18,18 45 0 1 -18,-18 l 0,-178.00314 a 18,18 135 0 1 18,-18 z"
       inkscape:path-effect="#path-effect1" /><text
       xml:space="preserve"
       style="font-style:normal;font-variant:normal;font-weight:bold;font-stretch:normal;font-size:7.29657px;font-family:Calibri;-inkscape-font-specification:'Calibri, Bold';font-variant-ligatures:normal;font-variant-caps:normal;font-variant-numeric:normal;font-variant-east-asian:normal;text-align:center;text-anchor:middle;fill:#000000;fill-opacity:1;stroke:#000000;stroke-width:0.0196094;stroke-linecap:round;stroke-linejoin:round;stroke-dasharray:none;stroke-opacity:1"
       x="43.679989"
       y="12.240244"
       id="text13"
       transform="scale(1.0227889,0.97771886)"><tspan
         sodipodi:role="line"
         id="tspan13"
         x="43.679989"
         y="12.240244"
         style="font-style:normal;font-variant:normal;font-weight:bold;font-stretch:normal;font-size:7.29657px;font-family:Calibri;-inkscape-font-specification:'Calibri, Bold';font-variant-ligatures:normal;font-variant-caps:normal;font-variant-numeric:normal;font-variant-east-asian:normal;stroke-width:0.0196094">Movimentação da tela</tspan></text><text
       xml:space="preserve"
       style="font-style:normal;font-variant:normal;font-weight:normal;font-stretch:normal;font-size:5.56648px;font-family:Calibri;-inkscape-font-specification:'Calibri, Normal';font-variant-ligatures:normal;font-variant-caps:normal;font-variant-numeric:normal;font-variant-east-asian:normal;text-align:center;text-anchor:middle;fill:#000000;fill-opacity:1;stroke:#000000;stroke-width:0.0149598;stroke-linecap:round;stroke-linejoin:round;stroke-dasharray:none;stroke-opacity:1"
       x="43.788464"
       y="67.572662"
       id="text13-5"
       transform="scale(1.0227889,0.97771886)"><tspan
         sodipodi:role="line"
         id="tspan13-0"
         x="43.78846"
         y="67.572662"
         style="font-style:normal;font-variant:normal;font-weight:normal;font-stretch:normal;font-size:5.56648px;font-family:Calibri;-inkscape-font-specification:'Calibri, Normal';font-variant-ligatures:normal;font-variant-caps:normal;font-variant-numeric:normal;font-variant-east-asian:normal;stroke-width:0.0149598">utilize o botão de rolagem do mouse</tspan></text><path
       fill="#3e3d42"
       d="m 54.787389,28.480439 v 9.46069 a 7.3178624,6.7576357 0 0 1 -7.317863,6.757636 h -4.390717 a 7.3178624,6.7576357 0 0 1 -7.317862,-6.757636 v -9.46069 z"
       opacity="1"
       data-original="#3e3d42"
       id="path1"
       style="stroke-width:0.0879022" /><path
       fill="#e0e0e2"
       d="m 54.202737,24.133532 v 4.054581 H 35.176295 v -4.054581 a 7.3178624,6.7576357 0 0 1 7.317862,-6.757637 h 4.390717 a 7.3178624,6.7576357 0 0 1 7.317863,6.757637 z"
       opacity="1"
       data-original="#e0e0e2"
       id="path2"
       style="stroke-width:0.0879022" /><path
       fill="#3e3d42"
       d="m 43.225943,20.07895 h 2.927145 v 5.406108 h -2.927145 z"
       opacity="1"
       data-original="#3e3d42"
       id="path3"
       style="stroke-width:0.0879022" /><path
       fill="#cca400"
       d="m 43.21954,36.267374 h 2.92623 v 16.41286 l 3.711346,-3.427303 2.069857,1.911397 -7.244318,6.689721 -7.244318,-6.689721 2.069766,-1.911397 3.711437,3.427303 z"
       opacity="1"
       data-original="#cca400"
       id="path4"
       style="stroke-width:0.0879022" /><path
       d="m 46.884874,45.082202 a 8.058796,7.4418463 0 0 0 8.049649,-7.433399 V 24.133532 a 8.058796,7.4418463 0 0 0 -8.049649,-7.4334 h -4.390717 a 8.058796,7.4418463 0 0 0 -8.049649,7.4334 v 13.515271 a 8.058796,7.4418463 0 0 0 8.043246,7.433399 v 5.966993 L 40.025293,48.77525 a 0.73178624,0.67576357 0 0 0 -1.034563,0 l -2.07004,1.911566 a 0.73178624,0.67576357 0 0 0 0,0.955361 l 7.244684,6.690059 a 0.73178624,0.67576357 0 0 0 1.034563,0 l 7.244683,-6.690059 a 0.73178624,0.67576357 0 0 0 0,-0.955361 L 50.37458,48.77525 a 0.73178624,0.67576357 0 0 0 -1.034563,0 l -2.46246,2.273945 V 45.082202 Z M 35.908081,24.133532 a 6.5936684,6.0888831 0 0 1 6.586076,-6.081872 h 4.390717 a 6.5936684,6.0888831 0 0 1 6.586077,6.081872 v 3.378817 h -17.56287 z m 13.94876,26.075182 1.035478,0.95536 -6.210121,5.733854 -6.209206,-5.733854 1.035477,-0.95536 3.193332,2.949708 a 0.73178624,0.67576357 0 0 0 1.249525,-0.478103 V 36.943475 h 1.462658 v 15.736844 a 0.73178624,0.67576357 0 0 0 1.249525,0.478103 z M 46.14577,35.591947 h -2.92623 a 0.73178624,0.67576357 0 0 0 -0.731786,0.675765 v 7.462963 a 6.5934855,6.0887142 0 0 1 -6.579673,-6.081872 v -8.784926 h 17.56287 v 8.784926 a 6.5936684,6.0888831 0 0 1 -6.586077,6.081872 h -0.0073 V 36.267712 A 0.73178624,0.67576357 0 0 0 46.14577,35.591947 Z"
       fill="#000000"
       opacity="1"
       data-original="#000000"
       id="path5"
       style="stroke-width:0.0879022" /><path
       d="m 43.225943,26.160823 h 2.927145 a 0.73178624,0.67576357 0 0 0 0.731786,-0.675765 V 20.07895 a 0.73178624,0.67576357 0 0 0 -0.731786,-0.675764 h -2.927145 a 0.73178624,0.67576357 0 0 0 -0.731786,0.675764 v 5.406108 a 0.73178624,0.67576357 0 0 0 0.731786,0.675765 z m 0.731786,-5.406109 h 1.463573 v 4.054581 h -1.463573 z"
       fill="#000000"
       opacity="1"
       data-original="#000000"
       id="path6"
       style="stroke-width:0.0879022" /></g></svg>
